<svg width="299" height="172" viewBox="0 0 299 172" fill="none" xmlns="http://www.w3.org/2000/svg">
<g filter="url(#filter0_d_351_327)">
<rect width="299" height="167.592" rx="7" fill="white"/>
</g>
<circle cx="158.07" cy="24.7579" r="3.80892" fill="#D9D9D9"/>
<circle cx="184.732" cy="24.7579" r="3.80892" fill="#D9D9D9"/>
<circle cx="211.395" cy="24.7579" r="3.80892" fill="#D9D9D9"/>
<circle cx="171.401" cy="24.7579" r="3.80892" fill="#D9D9D9"/>
<circle cx="198.064" cy="24.7579" r="3.80892" fill="#D9D9D9"/>
<circle cx="224.726" cy="24.7579" r="3.80892" fill="#D9D9D9"/>
<circle cx="158.07" cy="39.9937" r="3.80892" fill="#D9D9D9"/>
<circle cx="184.732" cy="39.9937" r="3.80892" fill="#D9D9D9"/>
<circle cx="211.395" cy="39.9937" r="3.80892" fill="#D9D9D9"/>
<circle cx="238.057" cy="39.9937" r="3.80892" fill="#D9D9D9"/>
<circle cx="171.401" cy="39.9937" r="3.80892" fill="#D9D9D9"/>
<circle cx="198.064" cy="39.9937" r="3.80892" fill="#D9D9D9"/>
<circle cx="224.726" cy="39.9937" r="3.80892" fill="#D9D9D9"/>
<circle cx="251.389" cy="39.9937" r="3.80892" fill="#D9D9D9"/>
<circle cx="158.07" cy="55.2293" r="3.80892" fill="#D9D9D9"/>
<circle cx="184.732" cy="55.2293" r="3.80892" fill="#D9D9D9"/>
<circle cx="211.395" cy="55.2293" r="3.80892" fill="#D9D9D9"/>
<circle cx="238.057" cy="55.2293" r="3.80892" fill="#D9D9D9"/>
<circle cx="264.72" cy="55.2293" r="3.80892" fill="#D9D9D9"/>
<circle cx="171.401" cy="55.2293" r="3.80892" fill="#D9D9D9"/>
<circle cx="198.064" cy="55.2293" r="3.80892" fill="#D9D9D9"/>
<circle cx="224.726" cy="55.2293" r="3.80892" fill="#D9D9D9"/>
<circle cx="251.389" cy="55.2293" r="3.80892" fill="#D9D9D9"/>
<circle cx="278.051" cy="55.2293" r="3.80892" fill="#D9D9D9"/>
<circle cx="158.07" cy="70.4649" r="3.80892" fill="#D9D9D9"/>
<circle cx="184.732" cy="70.4649" r="3.80892" fill="#D9D9D9"/>
<circle cx="211.395" cy="70.4649" r="3.80892" fill="#D9D9D9"/>
<circle cx="171.401" cy="70.4649" r="3.80892" fill="#D9D9D9"/>
<circle cx="198.064" cy="70.4649" r="3.80892" fill="#D9D9D9"/>
<circle cx="224.726" cy="70.4649" r="3.80892" fill="#D9D9D9"/>
<circle cx="158.07" cy="85.7005" r="3.80892" fill="#D9D9D9"/>
<circle cx="184.732" cy="85.7005" r="3.80892" fill="#D9D9D9"/>
<circle cx="211.395" cy="85.7005" r="3.80892" fill="#D9D9D9"/>
<circle cx="238.057" cy="85.7005" r="3.80892" fill="#D9D9D9"/>
<circle cx="264.72" cy="85.7005" r="3.80892" fill="#D9D9D9"/>
<circle cx="171.401" cy="85.7005" r="3.80892" fill="#D9D9D9"/>
<circle cx="198.064" cy="85.7005" r="3.80892" fill="#D9D9D9"/>
<circle cx="224.726" cy="85.7005" r="3.80892" fill="#D9D9D9"/>
<circle cx="251.389" cy="85.7005" r="3.80892" fill="#D9D9D9"/>
<circle cx="158.07" cy="116.172" r="3.80892" fill="#D9D9D9"/>
<circle cx="184.732" cy="116.172" r="3.80892" fill="#D9D9D9"/>
<circle cx="171.401" cy="116.172" r="3.80892" fill="#D9D9D9"/>
<circle cx="198.064" cy="116.172" r="3.80892" fill="#D9D9D9"/>
<circle cx="158.07" cy="131.408" r="3.80892" fill="#D9D9D9"/>
<circle cx="184.732" cy="131.408" r="3.80892" fill="#D9D9D9"/>
<circle cx="211.395" cy="131.408" r="3.80892" fill="#D9D9D9"/>
<circle cx="238.057" cy="131.408" r="3.80892" fill="#D9D9D9"/>
<circle cx="171.401" cy="131.408" r="3.80892" fill="#D9D9D9"/>
<circle cx="198.064" cy="131.408" r="3.80892" fill="#D9D9D9"/>
<circle cx="224.726" cy="131.408" r="3.80892" fill="#D9D9D9"/>
<circle cx="158.07" cy="146.643" r="3.80892" fill="#D9D9D9"/>
<circle cx="184.732" cy="146.643" r="3.80892" fill="#D9D9D9"/>
<circle cx="211.395" cy="146.643" r="3.80892" fill="#D9D9D9"/>
<circle cx="238.057" cy="146.643" r="3.80892" fill="#D9D9D9"/>
<circle cx="264.72" cy="146.643" r="3.80892" fill="#D9D9D9"/>
<circle cx="171.401" cy="146.643" r="3.80892" fill="#D9D9D9"/>
<circle cx="198.064" cy="146.643" r="3.80892" fill="#D9D9D9"/>
<circle cx="224.726" cy="146.643" r="3.80892" fill="#D9D9D9"/>
<circle cx="251.389" cy="146.643" r="3.80892" fill="#D9D9D9"/>
<circle cx="278.051" cy="146.643" r="3.80892" fill="#D9D9D9"/>
<g filter="url(#filter1_d_351_327)">
<rect x="13.3311" y="15.2356" width="118.076" height="79.9873" rx="7" fill="#DEFFF4"/>
</g>
<path d="M72.3695 20.949L90.5119 52.3725H54.2271L72.3695 20.949Z" fill="#66FFCC"/>
<circle cx="55.2293" cy="72.3695" r="15.2357" fill="#66FFCC"/>
<rect x="76.1782" y="59.0383" width="26.6624" height="26.6624" fill="#66FFCC"/>
<defs>
<filter id="filter0_d_351_327" x="0" y="0" width="299" height="171.592" filterUnits="userSpaceOnUse" color-interpolation-filters="sRGB">
<feFlood flood-opacity="0" result="BackgroundImageFix"/>
<feColorMatrix in="SourceAlpha" type="matrix" values="0 0 0 0 0 0 0 0 0 0 0 0 0 0 0 0 0 0 127 0" result="hardAlpha"/>
<feOffset dy="4"/>
<feComposite in2="hardAlpha" operator="out"/>
<feColorMatrix type="matrix" values="0 0 0 0 0 0 0 0 0 0 0 0 0 0 0 0 0 0 0.04 0"/>
<feBlend mode="normal" in2="BackgroundImageFix" result="effect1_dropShadow_351_327"/>
<feBlend mode="normal" in="SourceGraphic" in2="effect1_dropShadow_351_327" result="shape"/>
</filter>
<filter id="filter1_d_351_327" x="13.3311" y="15.2356" width="118.077" height="83.9873" filterUnits="userSpaceOnUse" color-interpolation-filters="sRGB">
<feFlood flood-opacity="0" result="BackgroundImageFix"/>
<feColorMatrix in="SourceAlpha" type="matrix" values="0 0 0 0 0 0 0 0 0 0 0 0 0 0 0 0 0 0 127 0" result="hardAlpha"/>
<feOffset dy="4"/>
<feComposite in2="hardAlpha" operator="out"/>
<feColorMatrix type="matrix" values="0 0 0 0 0 0 0 0 0 0 0 0 0 0 0 0 0 0 0.04 0"/>
<feBlend mode="normal" in2="BackgroundImageFix" result="effect1_dropShadow_351_327"/>
<feBlend mode="normal" in="SourceGraphic" in2="effect1_dropShadow_351_327" result="shape"/>
</filter>
</defs>
</svg>
