<svg width="285" height="49" viewBox="0 0 285 49" fill="none" xmlns="http://www.w3.org/2000/svg">
<g clip-path="url(#clip0_228_919)">
<path d="M39.351 39.0757C36.8118 39.0757 34.751 37.0287 34.751 34.5065V14.6153C34.751 12.0931 36.8118 10.0461 39.351 10.0461C41.8902 10.0461 43.9509 12.0931 43.9509 14.6153V34.5065C43.9509 37.0287 41.8902 39.0757 39.351 39.0757Z" fill="#66FFCC"/>
<path d="M39.3939 19.1479C38.615 19.1479 37.8238 18.953 37.1001 18.5326L19.7614 8.59005C17.5595 7.32895 16.8051 4.53261 18.0747 2.34549C19.3443 0.158371 22.1595 -0.590977 24.3613 0.67012L41.7062 10.6127C43.908 11.8738 44.6624 14.6701 43.3928 16.8572C42.5403 18.3255 40.9947 19.1418 39.4062 19.1418L39.3939 19.1479Z" fill="url(#paint0_linear_228_919)"/>
<path d="M4.71034 19.0871C3.12183 19.0871 1.57625 18.2647 0.723725 16.8026C-0.54586 14.6154 0.208531 11.8252 2.41037 10.558L19.7491 0.615432C21.9509 -0.645664 24.76 0.103683 26.0357 2.2908C27.3053 4.47792 26.5509 7.26817 24.349 8.53536L7.01032 18.4718C6.28659 18.8861 5.4954 19.0871 4.71648 19.0871H4.71034Z" fill="#FF6666"/>
<path d="M4.64901 38.9539C2.10984 38.9539 0.0490646 36.9069 0.0490646 34.3847V14.4935C0.0490646 11.9713 2.10984 9.92432 4.64901 9.92432C7.18818 9.92432 9.24895 11.9713 9.24895 14.4935V34.3847C9.24895 36.9069 7.18818 38.9539 4.64901 38.9539Z" fill="#FF6666"/>
<path d="M21.9387 48.9392C21.1597 48.9392 20.3686 48.7442 19.6448 48.3239L2.29997 38.3813C0.098134 37.1202 -0.656257 34.3239 0.613328 32.1367C1.88291 29.9496 4.69808 29.2003 6.89992 30.4614L24.2448 40.41C26.4466 41.6711 27.201 44.4675 25.9314 46.6546C25.0789 48.1228 23.5333 48.9392 21.9448 48.9392H21.9387Z" fill="url(#paint1_linear_228_919)"/>
<path d="M21.9571 49C20.3686 49 18.823 48.1775 17.9705 46.7154C16.7009 44.5283 17.4553 41.738 19.6571 40.4708L37.002 30.5283C39.2038 29.2672 42.0128 30.0165 43.2885 32.2036C44.5581 34.3908 43.8037 37.181 41.6019 38.4482L24.257 48.3908C23.5333 48.805 22.7421 49.0061 21.9632 49.0061L21.9571 49Z" fill="#66FFCC"/>
</g>
<path d="M64.8802 41C64.0573 41 63.3715 40.75 62.8229 40.25C62.2743 39.75 62 39.1111 62 38.3333V9.16667C62 8.33333 62.2743 7.66667 62.8229 7.16666C63.3715 6.66666 64.0573 6.41666 64.8802 6.41666C65.7579 6.41666 66.4437 6.66666 66.9374 7.16666C67.486 7.66667 67.7603 8.33333 67.7603 9.16667V17.5833C67.7603 19.25 68.5284 20.0833 70.0644 20.0833H81.9142C83.4503 20.0833 84.2184 19.25 84.2184 17.5833V9.16667C84.2184 8.33333 84.4652 7.66667 84.959 7.16666C85.5076 6.66666 86.2207 6.41666 87.0985 6.41666C87.9763 6.41666 88.662 6.66666 89.1558 7.16666C89.7044 7.66667 89.9787 8.33333 89.9787 9.16667V38.3333C89.9787 39.1111 89.7044 39.75 89.1558 40.25C88.662 40.75 87.9763 41 87.0985 41C86.2207 41 85.5076 40.75 84.959 40.25C84.4652 39.75 84.2184 39.1111 84.2184 38.3333V27.75C84.2184 26.0833 83.4503 25.25 81.9142 25.25H70.0644C68.5284 25.25 67.7603 26.0833 67.7603 27.75V38.3333C67.7603 39.1111 67.486 39.75 66.9374 40.25C66.4437 40.75 65.7579 41 64.8802 41Z" fill="black"/>
<path d="M101.885 40.1667C100.514 40.1667 99.4163 39.75 98.5934 38.9167C97.7705 38.0833 97.3591 36.9722 97.3591 35.5833V11.1667C97.3591 9.88889 97.7705 8.86111 98.5934 8.08333C99.4712 7.25 100.486 6.83333 101.638 6.83333H114.064C114.997 6.83333 115.655 7.08333 116.039 7.58333C116.478 8.02778 116.697 8.61111 116.697 9.33333C116.697 10 116.45 10.5833 115.957 11.0833C115.518 11.5833 114.887 11.8333 114.064 11.8333H105.259C103.833 11.8333 103.119 12.5556 103.119 14V18.5833C103.119 20.0278 103.778 20.75 105.094 20.75H113.241C114.174 20.75 114.832 21 115.216 21.5C115.655 22 115.874 22.5833 115.874 23.25C115.874 23.8611 115.627 24.4444 115.134 25C114.695 25.5 114.064 25.75 113.241 25.75H105.094C103.778 25.75 103.119 26.4444 103.119 27.8333V32.9167C103.119 34.3611 103.805 35.0833 105.177 35.0833H114.887C115.82 35.0833 116.478 35.3611 116.862 35.9167C117.301 36.4167 117.52 37 117.52 37.6667C117.52 38.3333 117.273 38.9167 116.78 39.4167C116.341 39.9167 115.71 40.1667 114.887 40.1667H101.885Z" fill="black"/>
<path d="M124.047 41C123.279 41 122.538 40.7222 121.825 40.1667C121.167 39.5556 120.837 38.8611 120.837 38.0833C120.837 37.5278 121.002 37 121.331 36.5L129.889 25.4167C130.328 24.9167 130.548 24.3333 130.548 23.6667C130.548 23 130.328 22.4167 129.889 21.9167L121.496 11C121.222 10.5 121.084 9.97222 121.084 9.41666C121.084 8.58333 121.414 7.88889 122.072 7.33333C122.73 6.72222 123.416 6.41666 124.129 6.41666C124.897 6.41666 125.528 6.75 126.022 7.41667L133.263 17.6667C133.592 18.1667 133.976 18.4167 134.415 18.4167C134.854 18.4167 135.238 18.1667 135.567 17.6667L142.809 7.41667C143.303 6.75 143.934 6.41666 144.702 6.41666C145.579 6.41666 146.32 6.69444 146.923 7.25C147.582 7.80555 147.911 8.47222 147.911 9.25C147.911 9.86111 147.719 10.4444 147.335 11L138.941 21.8333C138.448 22.3889 138.201 23 138.201 23.6667C138.201 24.1667 138.42 24.7222 138.859 25.3333L147.5 36.5C147.829 37 147.993 37.5278 147.993 38.0833C147.993 38.8611 147.637 39.5556 146.923 40.1667C146.265 40.7222 145.552 41 144.784 41C144.016 41 143.385 40.6667 142.891 40L135.485 29.5833C135.156 29.0833 134.772 28.8333 134.333 28.8333C133.894 28.8333 133.51 29.0833 133.181 29.5833L125.939 40C125.446 40.6667 124.815 41 124.047 41Z" fill="black"/>
<path d="M153.145 41C152.432 41 151.801 40.75 151.253 40.25C150.704 39.75 150.43 39.0833 150.43 38.25C150.43 37.9722 150.485 37.6111 150.594 37.1667L160.881 8.91666C161.265 7.97222 161.841 7.25 162.609 6.75C163.377 6.25 164.2 6 165.077 6C165.955 6 166.778 6.25 167.546 6.75C168.369 7.25 168.973 7.97222 169.357 8.91666L180.301 37.1667C180.411 37.6111 180.466 37.9722 180.466 38.25C180.466 39.0833 180.191 39.75 179.643 40.25C179.094 40.75 178.463 41 177.75 41C177.256 41 176.735 40.8611 176.187 40.5833C175.693 40.3611 175.309 39.9722 175.035 39.4167L172.319 32.0833C172.264 31.75 172.045 31.5833 171.661 31.5833H159.07C158.686 31.5833 158.439 31.75 158.33 32.0833L155.861 39.4167C155.587 39.9722 155.175 40.3611 154.627 40.5833C154.133 40.8611 153.639 41 153.145 41ZM161.539 26.5833H168.945C169.274 26.5833 169.521 26.4722 169.686 26.25C169.905 25.9722 169.96 25.6389 169.85 25.25L165.9 13.8333C165.736 13.2778 165.489 13 165.16 13C164.776 13 164.501 13.2778 164.337 13.8333L160.634 25.3333C160.524 25.6667 160.552 25.9722 160.716 26.25C160.936 26.4722 161.21 26.5833 161.539 26.5833Z" fill="black"/>
<path d="M205.85 41C204.807 41 203.765 40.8611 202.723 40.5833C201.735 40.3056 200.775 39.8889 199.842 39.3333C199.458 39.0556 199.157 38.6944 198.937 38.25C198.718 37.75 198.608 37.3056 198.608 36.9167C198.608 36.1389 198.882 35.4722 199.431 34.9167C199.98 34.3056 200.611 34 201.324 34C201.817 34 202.256 34.1111 202.64 34.3333C203.957 35.0556 205.164 35.4167 206.261 35.4167C208.565 35.4167 209.717 33.6944 209.717 30.25V9.16667C209.717 8.33333 209.964 7.66667 210.458 7.16666C211.007 6.66666 211.72 6.41666 212.597 6.41666C213.475 6.41666 214.161 6.66666 214.655 7.16666C215.203 7.66667 215.478 8.33333 215.478 9.16667V30.4167C215.478 33.9722 214.518 36.6389 212.597 38.4167C210.732 40.1389 208.483 41 205.85 41Z" fill="black"/>
<path d="M238.437 41C235.255 41 232.347 40.25 229.714 38.75C227.135 37.1944 225.078 35.1111 223.542 32.5C222.006 29.8333 221.238 26.8333 221.238 23.5C221.238 20 222.006 16.9444 223.542 14.3333C225.078 11.7222 227.135 9.69444 229.714 8.25C232.347 6.75 235.255 6 238.437 6C241.618 6 244.471 6.75 246.995 8.25C249.573 9.69444 251.603 11.7222 253.084 14.3333C254.62 16.9444 255.388 20 255.388 23.5C255.388 26.8333 254.62 29.8333 253.084 32.5C251.603 35.1111 249.573 37.1944 246.995 38.75C244.471 40.25 241.618 41 238.437 41ZM238.437 35.9167C240.631 35.9167 242.551 35.3611 244.197 34.25C245.898 33.0833 247.214 31.5556 248.147 29.6667C249.079 27.7778 249.546 25.7222 249.546 23.5C249.546 19.9444 248.503 17 246.419 14.6667C244.334 12.3333 241.673 11.1667 238.437 11.1667C235.145 11.1667 232.457 12.3333 230.372 14.6667C228.287 17 227.245 19.9444 227.245 23.5C227.245 25.7222 227.711 27.7778 228.644 29.6667C229.577 31.5556 230.893 33.0833 232.594 34.25C234.295 35.3611 236.242 35.9167 238.437 35.9167Z" fill="black"/>
<path d="M265.662 40.1667C264.51 40.1667 263.467 39.7778 262.535 39C261.602 38.1667 261.136 37.0278 261.136 35.5833V11.1667C261.136 9.88889 261.547 8.86111 262.37 8.08333C263.248 7.25 264.263 6.83333 265.415 6.83333H273.15C275.729 6.83333 278.005 7.55556 279.98 9C281.955 10.3889 282.943 12.3889 282.943 15C282.943 16.3889 282.641 17.6944 282.038 18.9167C281.489 20.0833 280.748 20.9722 279.816 21.5833C281.407 22.1389 282.668 23.1667 283.601 24.6667C284.534 26.1111 285 27.8333 285 29.8333C285 33.1667 284.013 35.7222 282.038 37.5C280.063 39.2778 277.594 40.1667 274.631 40.1667H265.662ZM268.871 35.0833H274.631C276.387 35.0833 277.649 34.5556 278.417 33.5C279.24 32.3889 279.651 31.1944 279.651 29.9167C279.651 28.75 279.267 27.6389 278.499 26.5833C277.731 25.5278 276.552 25 274.961 25H268.542C267.335 25 266.732 25.6389 266.732 26.9167V32.9167C266.732 34.3611 267.445 35.0833 268.871 35.0833ZM268.542 20.3333H273.315C274.686 20.3333 275.729 19.8611 276.442 18.9167C277.155 17.9722 277.512 16.9722 277.512 15.9167C277.512 14.9167 277.155 14 276.442 13.1667C275.783 12.2778 274.741 11.8333 273.315 11.8333H268.953C267.472 11.8333 266.732 12.5556 266.732 14V18.4167C266.732 19.6944 267.335 20.3333 268.542 20.3333Z" fill="black"/>
<defs>
<linearGradient id="paint0_linear_228_919" x1="21.0616" y1="3.74062" x2="43.6351" y2="17.6133" gradientUnits="userSpaceOnUse">
<stop stop-color="#009471"/>
<stop offset="0.59" stop-color="#66FFCC"/>
<stop offset="1" stop-color="#66FFCC"/>
</linearGradient>
<linearGradient id="paint1_linear_228_919" x1="22.5765" y1="44.9183" x2="-0.127835" y2="31.2594" gradientUnits="userSpaceOnUse">
<stop stop-color="#D42300"/>
<stop offset="0.59" stop-color="#FF6666"/>
<stop offset="1" stop-color="#FF6666"/>
</linearGradient>
<clipPath id="clip0_228_919">
<rect width="44" height="49" fill="white"/>
</clipPath>
</defs>
</svg>
