<svg width="167" height="38" viewBox="0 0 167 38" fill="none" xmlns="http://www.w3.org/2000/svg">
<g clip-path="url(#clip0_228_1036)">
<path d="M30.1095 30.1001C28.1667 30.1001 26.5898 28.5233 26.5898 26.5804V11.2582C26.5898 9.31533 28.1667 7.73853 30.1095 7.73853C32.0524 7.73853 33.6292 9.31533 33.6292 11.2582V26.5804C33.6292 28.5233 32.0524 30.1001 30.1095 30.1001Z" fill="#66FFCC"/>
<path d="M30.1424 14.7498C29.5464 14.7498 28.941 14.5996 28.3872 14.2758L15.1204 6.61705C13.4357 5.64562 12.8585 3.49159 13.8299 1.80684C14.8013 0.1221 16.9554 -0.455124 18.6401 0.516302L31.9116 8.17508C33.5963 9.14651 34.1735 11.3005 33.2021 12.9853C32.5498 14.1163 31.3672 14.7451 30.1517 14.7451L30.1424 14.7498Z" fill="url(#paint0_linear_228_1036)"/>
<path d="M3.60415 14.7029C2.38869 14.7029 1.20609 14.0693 0.553778 12.943C-0.417648 11.2583 0.159576 9.10897 1.84432 8.13285L15.1111 0.474066C16.7958 -0.49736 18.9452 0.079864 19.9213 1.76461C20.8927 3.44935 20.3155 5.59869 18.6308 6.57481L5.36398 14.2289C4.81022 14.548 4.20484 14.7029 3.60884 14.7029H3.60415Z" fill="#FF6666"/>
<path d="M3.5572 30.0064C1.61434 30.0064 0.0375366 28.4295 0.0375366 26.4867V11.1644C0.0375366 9.22158 1.61434 7.64478 3.5572 7.64478C5.50005 7.64478 7.07686 9.22158 7.07686 11.1644V26.4867C7.07686 28.4295 5.50005 30.0064 3.5572 30.0064Z" fill="#FF6666"/>
<path d="M16.7865 37.6978C16.1905 37.6978 15.5851 37.5476 15.0313 37.2238L1.75985 29.565C0.0751032 28.5936 -0.502121 26.4396 0.469305 24.7548C1.44073 23.0701 3.59476 22.4929 5.27951 23.4643L18.551 31.1278C20.2357 32.0992 20.8129 34.2532 19.8415 35.938C19.1892 37.069 18.0066 37.6978 16.7911 37.6978H16.7865Z" fill="url(#paint1_linear_228_1036)"/>
<path d="M16.8005 37.7449C15.585 37.7449 14.4024 37.1113 13.7501 35.985C12.7787 34.3003 13.3559 32.151 15.0407 31.1748L28.3121 23.5161C29.9969 22.5446 32.1462 23.1219 33.1223 24.8066C34.0938 26.4913 33.5165 28.6407 31.8318 29.6168L18.5603 37.2756C18.0066 37.5947 17.4012 37.7496 16.8052 37.7496L16.8005 37.7449Z" fill="#66FFCC"/>
</g>
<path d="M45.5768 28.9217C45.1263 28.9217 44.7509 28.7865 44.4505 28.5162C44.1502 28.2459 44 27.9005 44 27.48V11.712C44 11.2614 44.1502 10.901 44.4505 10.6307C44.7509 10.3604 45.1263 10.2253 45.5768 10.2253C46.0574 10.2253 46.4328 10.3604 46.7031 10.6307C47.0034 10.901 47.1536 11.2614 47.1536 11.712V16.2622C47.1536 17.1632 47.5741 17.6137 48.4151 17.6137H54.9025C55.7435 17.6137 56.1639 17.1632 56.1639 16.2622V11.712C56.1639 11.2614 56.2991 10.901 56.5694 10.6307C56.8698 10.3604 57.2602 10.2253 57.7408 10.2253C58.2213 10.2253 58.5967 10.3604 58.867 10.6307C59.1674 10.901 59.3176 11.2614 59.3176 11.712V27.48C59.3176 27.9005 59.1674 28.2459 58.867 28.5162C58.5967 28.7865 58.2213 28.9217 57.7408 28.9217C57.2602 28.9217 56.8698 28.7865 56.5694 28.5162C56.2991 28.2459 56.1639 27.9005 56.1639 27.48V21.7585C56.1639 20.8574 55.7435 20.4069 54.9025 20.4069H48.4151C47.5741 20.4069 47.1536 20.8574 47.1536 21.7585V27.48C47.1536 27.9005 47.0034 28.2459 46.7031 28.5162C46.4328 28.7865 46.0574 28.9217 45.5768 28.9217Z" fill="#F5F5F5"/>
<path d="M65.836 28.4712C65.0851 28.4712 64.4844 28.2459 64.0339 27.7954C63.5834 27.3449 63.3581 26.7442 63.3581 25.9933V12.7932C63.3581 12.1024 63.5834 11.5468 64.0339 11.1263C64.5145 10.6758 65.0701 10.4505 65.7008 10.4505H72.5036C73.0142 10.4505 73.3746 10.5857 73.5849 10.856C73.8251 11.0963 73.9453 11.4116 73.9453 11.8021C73.9453 12.1625 73.8101 12.4778 73.5398 12.7482C73.2995 13.0185 72.9541 13.1536 72.5036 13.1536H67.6831C66.9022 13.1536 66.5117 13.5441 66.5117 14.325V16.8028C66.5117 17.5837 66.8722 17.9741 67.593 17.9741H72.0531C72.5637 17.9741 72.9241 18.1093 73.1343 18.3796C73.3746 18.6499 73.4948 18.9653 73.4948 19.3257C73.4948 19.6561 73.3596 19.9714 73.0893 20.2718C72.849 20.5421 72.5036 20.6772 72.0531 20.6772H67.593C66.8722 20.6772 66.5117 21.0527 66.5117 21.8035V24.5517C66.5117 25.3326 66.8872 25.723 67.638 25.723H72.9541C73.4647 25.723 73.8251 25.8732 74.0354 26.1735C74.2757 26.4439 74.3958 26.7592 74.3958 27.1196C74.3958 27.48 74.2606 27.7954 73.9903 28.0657C73.75 28.336 73.4047 28.4712 72.9541 28.4712H65.836Z" fill="#F5F5F5"/>
<path d="M77.9689 28.9217C77.5485 28.9217 77.143 28.7715 76.7526 28.4712C76.3921 28.1408 76.2119 27.7654 76.2119 27.3449C76.2119 27.0445 76.302 26.7592 76.4822 26.4889L81.1676 20.497C81.4079 20.2267 81.528 19.9114 81.528 19.551C81.528 19.1905 81.4079 18.8752 81.1676 18.6049L76.5723 12.7031C76.4222 12.4328 76.3471 12.1475 76.3471 11.8471C76.3471 11.3966 76.5273 11.0212 76.8877 10.7208C77.2481 10.3904 77.6236 10.2253 78.014 10.2253C78.4345 10.2253 78.7799 10.4055 79.0502 10.7659L83.0147 16.3072C83.1949 16.5775 83.4052 16.7127 83.6455 16.7127C83.8857 16.7127 84.096 16.5775 84.2762 16.3072L88.2407 10.7659C88.511 10.4055 88.8564 10.2253 89.2769 10.2253C89.7575 10.2253 90.1629 10.3754 90.4933 10.6758C90.8537 10.9761 91.0339 11.3365 91.0339 11.757C91.0339 12.0874 90.9288 12.4028 90.7186 12.7031L86.1233 18.5598C85.853 18.8602 85.7178 19.1905 85.7178 19.551C85.7178 19.8213 85.838 20.1216 86.0782 20.452L90.8087 26.4889C90.9889 26.7592 91.079 27.0445 91.079 27.3449C91.079 27.7654 90.8838 28.1408 90.4933 28.4712C90.1329 28.7715 89.7424 28.9217 89.322 28.9217C88.9015 28.9217 88.5561 28.7415 88.2858 28.3811L84.2311 22.7496C84.0509 22.4793 83.8407 22.3442 83.6004 22.3442C83.3601 22.3442 83.1499 22.4793 82.9697 22.7496L79.0051 28.3811C78.7348 28.7415 78.3894 28.9217 77.9689 28.9217Z" fill="#F5F5F5"/>
<path d="M93.8996 28.9217C93.5092 28.9217 93.1638 28.7865 92.8634 28.5162C92.5631 28.2459 92.4129 27.8855 92.4129 27.435C92.4129 27.2848 92.443 27.0896 92.503 26.8493L98.1345 11.5768C98.3447 11.0662 98.6601 10.6758 99.0806 10.4055C99.5011 10.1352 99.9516 10 100.432 10C100.913 10 101.363 10.1352 101.784 10.4055C102.234 10.6758 102.565 11.0662 102.775 11.5768L108.767 26.8493C108.827 27.0896 108.857 27.2848 108.857 27.435C108.857 27.8855 108.707 28.2459 108.406 28.5162C108.106 28.7865 107.761 28.9217 107.37 28.9217C107.1 28.9217 106.814 28.8466 106.514 28.6964C106.244 28.5763 106.034 28.3661 105.883 28.0657L104.397 24.1012C104.367 23.921 104.246 23.8309 104.036 23.8309H97.1434C96.9331 23.8309 96.798 23.921 96.7379 24.1012L95.3863 28.0657C95.2362 28.3661 95.0109 28.5763 94.7106 28.6964C94.4403 28.8466 94.1699 28.9217 93.8996 28.9217ZM98.4949 21.1278H102.55C102.73 21.1278 102.865 21.0677 102.955 20.9476C103.075 20.7974 103.105 20.6172 103.045 20.4069L100.883 14.2349C100.793 13.9345 100.657 13.7843 100.477 13.7843C100.267 13.7843 100.117 13.9345 100.027 14.2349L97.9993 20.452C97.9393 20.6322 97.9543 20.7974 98.0444 20.9476C98.1645 21.0677 98.3147 21.1278 98.4949 21.1278Z" fill="#F5F5F5"/>
<path d="M122.754 28.9217C122.183 28.9217 121.612 28.8466 121.042 28.6964C120.501 28.5463 119.976 28.321 119.465 28.0207C119.255 27.8705 119.09 27.6753 118.969 27.435C118.849 27.1647 118.789 26.9244 118.789 26.7142C118.789 26.2937 118.939 25.9333 119.24 25.6329C119.54 25.3025 119.886 25.1374 120.276 25.1374C120.546 25.1374 120.787 25.1974 120.997 25.3176C121.718 25.708 122.378 25.9032 122.979 25.9032C124.241 25.9032 124.871 24.9722 124.871 23.11V11.712C124.871 11.2614 125.006 10.901 125.277 10.6307C125.577 10.3604 125.967 10.2253 126.448 10.2253C126.929 10.2253 127.304 10.3604 127.574 10.6307C127.875 10.901 128.025 11.2614 128.025 11.712V23.2001C128.025 25.1223 127.499 26.564 126.448 27.5251C125.427 28.4562 124.195 28.9217 122.754 28.9217Z" fill="#F5F5F5"/>
<path d="M140.594 28.9217C138.852 28.9217 137.26 28.5162 135.819 27.7053C134.407 26.8643 133.281 25.738 132.44 24.3264C131.599 22.8848 131.178 21.2629 131.178 19.4608C131.178 17.5687 131.599 15.9168 132.44 14.5052C133.281 13.0935 134.407 11.9973 135.819 11.2164C137.26 10.4055 138.852 10 140.594 10C142.336 10 143.898 10.4055 145.28 11.2164C146.691 11.9973 147.803 13.0935 148.613 14.5052C149.454 15.9168 149.875 17.5687 149.875 19.4608C149.875 21.2629 149.454 22.8848 148.613 24.3264C147.803 25.738 146.691 26.8643 145.28 27.7053C143.898 28.5162 142.336 28.9217 140.594 28.9217ZM140.594 26.1735C141.796 26.1735 142.847 25.8732 143.748 25.2725C144.679 24.6418 145.4 23.8158 145.91 22.7947C146.421 21.7735 146.676 20.6622 146.676 19.4608C146.676 17.5386 146.106 15.9468 144.964 14.6854C143.823 13.4239 142.366 12.7932 140.594 12.7932C138.792 12.7932 137.321 13.4239 136.179 14.6854C135.038 15.9468 134.467 17.5386 134.467 19.4608C134.467 20.6622 134.723 21.7735 135.233 22.7947C135.744 23.8158 136.465 24.6418 137.396 25.2725C138.327 25.8732 139.393 26.1735 140.594 26.1735Z" fill="#F5F5F5"/>
<path d="M155.499 28.4712C154.869 28.4712 154.298 28.2609 153.787 27.8405C153.277 27.3899 153.021 26.7742 153.021 25.9933V12.7932C153.021 12.1024 153.247 11.5468 153.697 11.1263C154.178 10.6758 154.733 10.4505 155.364 10.4505H159.599C161.011 10.4505 162.257 10.841 163.338 11.6219C164.42 12.3727 164.96 13.454 164.96 14.8656C164.96 15.6164 164.795 16.3222 164.465 16.983C164.164 17.6137 163.759 18.0943 163.248 18.4247C164.119 18.725 164.81 19.2806 165.321 20.0916C165.831 20.8725 166.086 21.8035 166.086 22.8848C166.086 24.6868 165.546 26.0684 164.465 27.0295C163.383 27.9906 162.032 28.4712 160.41 28.4712H155.499ZM157.256 25.723H160.41C161.371 25.723 162.062 25.4377 162.482 24.867C162.933 24.2664 163.158 23.6206 163.158 22.9298C163.158 22.2991 162.948 21.6984 162.527 21.1278C162.107 20.5571 161.461 20.2718 160.59 20.2718H157.076C156.415 20.2718 156.085 20.6172 156.085 21.308V24.5517C156.085 25.3326 156.475 25.723 157.256 25.723ZM157.076 17.7489H159.689C160.44 17.7489 161.011 17.4936 161.401 16.983C161.792 16.4724 161.987 15.9318 161.987 15.3611C161.987 14.8205 161.792 14.325 161.401 13.8744C161.041 13.3939 160.47 13.1536 159.689 13.1536H157.301C156.49 13.1536 156.085 13.5441 156.085 14.325V16.7127C156.085 17.4035 156.415 17.7489 157.076 17.7489Z" fill="#F5F5F5"/>
<defs>
<linearGradient id="paint0_linear_228_1036" x1="16.1153" y1="2.88151" x2="33.4508" y2="13.464" gradientUnits="userSpaceOnUse">
<stop stop-color="#009471"/>
<stop offset="0.59" stop-color="#66FFCC"/>
<stop offset="1" stop-color="#66FFCC"/>
</linearGradient>
<linearGradient id="paint1_linear_228_1036" x1="17.2745" y1="34.6005" x2="-0.15954" y2="24.1823" gradientUnits="userSpaceOnUse">
<stop stop-color="#D42300"/>
<stop offset="0.59" stop-color="#FF6666"/>
<stop offset="1" stop-color="#FF6666"/>
</linearGradient>
<clipPath id="clip0_228_1036">
<rect width="33.6667" height="37.7448" fill="white"/>
</clipPath>
</defs>
</svg>
