<svg width="169" height="41" viewBox="0 0 169 41" fill="none" xmlns="http://www.w3.org/2000/svg">
<g clip-path="url(#clip0_24_513)">
<path d="M30.1095 30.1001C28.1667 30.1001 26.5899 28.5233 26.5899 26.5805V11.2582C26.5899 9.31536 28.1667 7.73856 30.1095 7.73856C32.0524 7.73856 33.6292 9.31536 33.6292 11.2582V26.5805C33.6292 28.5233 32.0524 30.1001 30.1095 30.1001Z" fill="#66FFCC"/>
<path d="M30.1424 14.7497C29.5464 14.7497 28.941 14.5995 28.3872 14.2757L15.1204 6.61696C13.4357 5.64553 12.8585 3.4915 13.8299 1.80675C14.8013 0.122009 16.9554 -0.455216 18.6401 0.516211L31.9116 8.17499C33.5963 9.14642 34.1735 11.3005 33.2021 12.9852C32.5498 14.1162 31.3672 14.745 30.1517 14.745L30.1424 14.7497Z" fill="url(#paint0_linear_24_513)"/>
<path d="M3.60415 14.7028C2.38869 14.7028 1.20609 14.0692 0.553778 12.943C-0.417648 11.2582 0.159576 9.10887 1.84432 8.13276L15.1111 0.473974C16.7958 -0.497452 18.9452 0.0797724 19.9213 1.76452C20.8927 3.44926 20.3155 5.5986 18.6308 6.57472L5.36398 14.2288C4.81022 14.5479 4.20484 14.7028 3.60884 14.7028H3.60415Z" fill="#FF6666"/>
<path d="M3.5572 30.0063C1.61434 30.0063 0.0375366 28.4295 0.0375366 26.4866V11.1644C0.0375366 9.22152 1.61434 7.64471 3.5572 7.64471C5.50005 7.64471 7.07686 9.22152 7.07686 11.1644V26.4866C7.07686 28.4295 5.50005 30.0063 3.5572 30.0063Z" fill="#FF6666"/>
<path d="M16.7865 37.6979C16.1905 37.6979 15.5851 37.5477 15.0313 37.2239L1.75985 29.5651C0.0751032 28.5937 -0.502121 26.4397 0.469305 24.7549C1.44073 23.0702 3.59476 22.493 5.27951 23.4644L18.551 31.1279C20.2357 32.0993 20.8129 34.2533 19.8415 35.9381C19.1892 37.0691 18.0066 37.6979 16.7911 37.6979H16.7865Z" fill="url(#paint1_linear_24_513)"/>
<path d="M16.8005 37.7448C15.585 37.7448 14.4024 37.1113 13.7501 35.985C12.7787 34.3003 13.3559 32.1509 15.0407 31.1748L28.3121 23.516C29.9969 22.5446 32.1462 23.1218 33.1223 24.8066C34.0938 26.4913 33.5165 28.6407 31.8318 29.6168L18.5603 37.2756C18.0066 37.5947 17.4012 37.7495 16.8052 37.7495L16.8005 37.7448Z" fill="#66FFCC"/>
</g>
<path d="M43.9629 22.3583C43.5124 22.3583 43.137 22.2231 42.8366 21.9528C42.5363 21.6825 42.3861 21.3371 42.3861 20.9166V5.14855C42.3861 4.69803 42.5363 4.33762 42.8366 4.06731C43.137 3.797 43.5124 3.66184 43.9629 3.66184C44.4435 3.66184 44.8189 3.797 45.0892 4.06731C45.3896 4.33762 45.5397 4.69803 45.5397 5.14855V9.69876C45.5397 10.5998 45.9602 11.0503 46.8012 11.0503H53.2886C54.1296 11.0503 54.5501 10.5998 54.5501 9.69876V5.14855C54.5501 4.69803 54.6852 4.33762 54.9555 4.06731C55.2559 3.797 55.6463 3.66184 56.1269 3.66184C56.6074 3.66184 56.9828 3.797 57.2532 4.06731C57.5535 4.33762 57.7037 4.69803 57.7037 5.14855V20.9166C57.7037 21.3371 57.5535 21.6825 57.2532 21.9528C56.9828 22.2231 56.6074 22.3583 56.1269 22.3583C55.6463 22.3583 55.2559 22.2231 54.9555 21.9528C54.6852 21.6825 54.5501 21.3371 54.5501 20.9166V15.1951C54.5501 14.294 54.1296 13.8435 53.2886 13.8435H46.8012C45.9602 13.8435 45.5397 14.294 45.5397 15.1951V20.9166C45.5397 21.3371 45.3896 21.6825 45.0892 21.9528C44.8189 22.2231 44.4435 22.3583 43.9629 22.3583Z" fill="black"/>
<path d="M64.2221 21.9078C63.4712 21.9078 62.8705 21.6825 62.42 21.232C61.9695 20.7815 61.7442 20.1808 61.7442 19.4299V6.22979C61.7442 5.53899 61.9695 4.98336 62.42 4.56287C62.9006 4.11236 63.4562 3.8871 64.0869 3.8871H70.8897C71.4003 3.8871 71.7607 4.02226 71.971 4.29256C72.2112 4.53284 72.3314 4.8482 72.3314 5.23865C72.3314 5.59906 72.1962 5.91442 71.9259 6.18474C71.6856 6.45504 71.3402 6.5902 70.8897 6.5902H66.0692C65.2883 6.5902 64.8979 6.98065 64.8979 7.76154V10.2394C64.8979 11.0203 65.2583 11.4107 65.9791 11.4107H70.4392C70.9498 11.4107 71.3102 11.5459 71.5204 11.8162C71.7607 12.0865 71.8809 12.4019 71.8809 12.7623C71.8809 13.0927 71.7457 13.408 71.4754 13.7084C71.2351 13.9787 70.8897 14.1138 70.4392 14.1138H65.9791C65.2583 14.1138 64.8979 14.4893 64.8979 15.2401V17.9883C64.8979 18.7692 65.2733 19.1596 66.0241 19.1596H71.3402C71.8508 19.1596 72.2112 19.3098 72.4215 19.6101C72.6618 19.8804 72.7819 20.1958 72.7819 20.5562C72.7819 20.9166 72.6467 21.232 72.3764 21.5023C72.1362 21.7726 71.7908 21.9078 71.3402 21.9078H64.2221Z" fill="black"/>
<path d="M76.3551 22.3583C75.9346 22.3583 75.5291 22.2081 75.1387 21.9078C74.7782 21.5774 74.598 21.202 74.598 20.7815C74.598 20.4811 74.6881 20.1958 74.8684 19.9255L79.5537 13.9336C79.794 13.6633 79.9141 13.3479 79.9141 12.9875C79.9141 12.6271 79.794 12.3118 79.5537 12.0415L74.9585 6.13968C74.8083 5.86937 74.7332 5.58404 74.7332 5.2837C74.7332 4.83318 74.9134 4.45776 75.2738 4.15741C75.6342 3.82703 76.0097 3.66184 76.4001 3.66184C76.8206 3.66184 77.166 3.84205 77.4363 4.20246L81.4008 9.74382C81.581 10.0141 81.7913 10.1493 82.0316 10.1493C82.2718 10.1493 82.4821 10.0141 82.6623 9.74382L86.6268 4.20246C86.8971 3.84205 87.2425 3.66184 87.663 3.66184C88.1436 3.66184 88.549 3.81201 88.8794 4.11236C89.2398 4.4127 89.42 4.77312 89.42 5.1936C89.42 5.52398 89.3149 5.83934 89.1047 6.13968L84.5094 11.9964C84.2391 12.2967 84.1039 12.6271 84.1039 12.9875C84.1039 13.2578 84.2241 13.5582 84.4644 13.8886L89.1948 19.9255C89.375 20.1958 89.4651 20.4811 89.4651 20.7815C89.4651 21.202 89.2699 21.5774 88.8794 21.9078C88.519 22.2081 88.1286 22.3583 87.7081 22.3583C87.2876 22.3583 86.9422 22.1781 86.6719 21.8177L82.6172 16.1862C82.437 15.9159 82.2268 15.7807 81.9865 15.7807C81.7462 15.7807 81.536 15.9159 81.3558 16.1862L77.3912 21.8177C77.1209 22.1781 76.7755 22.3583 76.3551 22.3583Z" fill="black"/>
<path d="M92.2857 22.3583C91.8953 22.3583 91.5499 22.2231 91.2496 21.9528C90.9492 21.6825 90.799 21.3221 90.799 20.8716C90.799 20.7214 90.8291 20.5262 90.8891 20.2859L96.5206 5.01339C96.7308 4.50281 97.0462 4.11236 97.4667 3.84205C97.8872 3.57174 98.3377 3.43658 98.8182 3.43658C99.2988 3.43658 99.7493 3.57174 100.17 3.84205C100.62 4.11236 100.951 4.50281 101.161 5.01339L107.153 20.2859C107.213 20.5262 107.243 20.7214 107.243 20.8716C107.243 21.3221 107.093 21.6825 106.792 21.9528C106.492 22.2231 106.147 22.3583 105.756 22.3583C105.486 22.3583 105.201 22.2832 104.9 22.133C104.63 22.0129 104.42 21.8026 104.269 21.5023L102.783 17.5378C102.753 17.3575 102.633 17.2674 102.422 17.2674H95.5295C95.3192 17.2674 95.1841 17.3575 95.124 17.5378L93.7724 21.5023C93.6223 21.8026 93.397 22.0129 93.0967 22.133C92.8264 22.2832 92.556 22.3583 92.2857 22.3583ZM96.881 14.5643H100.936C101.116 14.5643 101.251 14.5043 101.341 14.3841C101.461 14.234 101.491 14.0538 101.431 13.8435L99.2687 7.67144C99.1786 7.3711 99.0435 7.22092 98.8633 7.22092C98.653 7.22092 98.5029 7.3711 98.4128 7.67144L96.3854 13.8886C96.3254 14.0688 96.3404 14.234 96.4305 14.3841C96.5506 14.5043 96.7008 14.5643 96.881 14.5643Z" fill="black"/>
<path d="M121.14 22.3583C120.569 22.3583 119.999 22.2832 119.428 22.133C118.887 21.9829 118.362 21.7576 117.851 21.4572C117.641 21.3071 117.476 21.1119 117.356 20.8716C117.235 20.6013 117.175 20.361 117.175 20.1507C117.175 19.7303 117.326 19.3699 117.626 19.0695C117.926 18.7391 118.272 18.5739 118.662 18.5739C118.932 18.5739 119.173 18.634 119.383 18.7541C120.104 19.1446 120.764 19.3398 121.365 19.3398C122.627 19.3398 123.257 18.4087 123.257 16.5466V5.14855C123.257 4.69803 123.393 4.33762 123.663 4.06731C123.963 3.797 124.354 3.66184 124.834 3.66184C125.315 3.66184 125.69 3.797 125.96 4.06731C126.261 4.33762 126.411 4.69803 126.411 5.14855V16.6367C126.411 18.5589 125.885 20.0006 124.834 20.9617C123.813 21.8927 122.582 22.3583 121.14 22.3583Z" fill="black"/>
<path d="M138.98 22.3583C137.238 22.3583 135.647 21.9528 134.205 21.1419C132.793 20.3009 131.667 19.1746 130.826 17.763C129.985 16.3214 129.565 14.6995 129.565 12.8974C129.565 11.0053 129.985 9.35337 130.826 7.94175C131.667 6.53013 132.793 5.43387 134.205 4.65298C135.647 3.84205 137.238 3.43658 138.98 3.43658C140.722 3.43658 142.284 3.84205 143.666 4.65298C145.077 5.43387 146.189 6.53013 147 7.94175C147.841 9.35337 148.261 11.0053 148.261 12.8974C148.261 14.6995 147.841 16.3214 147 17.763C146.189 19.1746 145.077 20.3009 143.666 21.1419C142.284 21.9528 140.722 22.3583 138.98 22.3583ZM138.98 19.6101C140.182 19.6101 141.233 19.3098 142.134 18.7091C143.065 18.0784 143.786 17.2524 144.296 16.2313C144.807 15.2101 145.062 14.0988 145.062 12.8974C145.062 10.9752 144.492 9.3834 143.35 8.12196C142.209 6.86051 140.752 6.22979 138.98 6.22979C137.178 6.22979 135.707 6.86051 134.565 8.12196C133.424 9.3834 132.853 10.9752 132.853 12.8974C132.853 14.0988 133.109 15.2101 133.619 16.2313C134.13 17.2524 134.851 18.0784 135.782 18.7091C136.713 19.3098 137.779 19.6101 138.98 19.6101Z" fill="black"/>
<path d="M153.885 21.9078C153.255 21.9078 152.684 21.6975 152.173 21.277C151.663 20.8265 151.408 20.2108 151.408 19.4299V6.22979C151.408 5.53899 151.633 4.98336 152.083 4.56287C152.564 4.11236 153.12 3.8871 153.75 3.8871H157.985C159.397 3.8871 160.643 4.27755 161.724 5.05844C162.806 5.80931 163.346 6.89055 163.346 8.30216C163.346 9.05302 163.181 9.75883 162.851 10.4196C162.55 11.0503 162.145 11.5309 161.634 11.8612C162.505 12.1616 163.196 12.7172 163.707 13.5282C164.217 14.309 164.473 15.2401 164.473 16.3214C164.473 18.1234 163.932 19.505 162.851 20.4661C161.769 21.4272 160.418 21.9078 158.796 21.9078H153.885ZM155.642 19.1596H158.796C159.757 19.1596 160.448 18.8743 160.868 18.3036C161.319 17.7029 161.544 17.0572 161.544 16.3664C161.544 15.7357 161.334 15.135 160.913 14.5643C160.493 13.9937 159.847 13.7084 158.976 13.7084H155.462C154.801 13.7084 154.471 14.0538 154.471 14.7446V17.9883C154.471 18.7692 154.862 19.1596 155.642 19.1596ZM155.462 11.1855H158.075C158.826 11.1855 159.397 10.9302 159.787 10.4196C160.178 9.909 160.373 9.36839 160.373 8.79773C160.373 8.25711 160.178 7.76154 159.787 7.31103C159.427 6.83048 158.856 6.5902 158.075 6.5902H155.687C154.877 6.5902 154.471 6.98065 154.471 7.76154V10.1493C154.471 10.8401 154.801 11.1855 155.462 11.1855Z" fill="black"/>
<path d="M45.338 30.2636L44.411 30.2366C44.411 30.3626 44.402 30.5516 44.384 30.7136C44.366 30.8936 44.339 31.0916 44.321 31.3166C44.159 31.3166 43.988 31.3166 43.826 31.3166C43.367 31.3166 42.575 31.2536 42.26 31.1996L42.287 32.0366C42.674 32.0546 43.376 32.0996 43.799 32.0996C43.943 32.0996 44.087 32.0996 44.24 32.0996C44.204 32.4866 44.168 32.9096 44.15 33.3236C42.899 33.9086 41.909 35.1056 41.909 36.2666C41.909 37.0946 42.422 37.4726 43.043 37.4726C43.529 37.4726 44.042 37.3016 44.51 37.0406C44.555 37.2026 44.6 37.3466 44.645 37.4816L45.464 37.2386C45.392 37.0136 45.311 36.7796 45.248 36.5276C45.977 35.9246 46.706 34.9436 47.201 33.6926C47.948 33.9266 48.344 34.4846 48.344 35.1146C48.344 36.1496 47.462 37.0046 45.788 37.1936L46.274 37.9406C48.416 37.6076 49.217 36.4376 49.217 35.1506C49.217 34.1336 48.533 33.3146 47.444 32.9906C47.507 32.8286 47.579 32.6036 47.633 32.4866L46.751 32.2706C46.733 32.4236 46.688 32.6936 46.643 32.8556C46.562 32.8466 46.472 32.8466 46.382 32.8466C45.932 32.8466 45.419 32.9186 44.942 33.0446C44.969 32.7116 44.996 32.3786 45.023 32.0726C46.13 32.0186 47.336 31.9016 48.245 31.7396L48.236 30.9026C47.282 31.1276 46.247 31.2446 45.122 31.2896C45.158 31.0736 45.194 30.8666 45.23 30.6956C45.257 30.5606 45.293 30.3986 45.338 30.2636ZM44.915 34.0346C44.915 33.9626 44.915 33.8906 44.915 33.8186C45.311 33.6746 45.797 33.5666 46.346 33.5666H46.409C46.058 34.4486 45.572 35.1056 45.05 35.6186C44.969 35.1326 44.915 34.6106 44.915 34.0346ZM42.755 36.1046C42.755 35.4566 43.322 34.6646 44.123 34.1786C44.123 34.8446 44.204 35.5736 44.321 36.2126C43.925 36.4736 43.538 36.6086 43.232 36.6086C42.908 36.6086 42.755 36.4376 42.755 36.1046ZM55.04 30.2456L54.05 30.1466C54.032 30.6236 53.924 31.1816 53.789 31.6856C53.474 31.7126 53.159 31.7216 52.862 31.7216C52.502 31.7216 52.07 31.7036 51.719 31.6676L51.782 32.5046C52.142 32.5226 52.52 32.5316 52.862 32.5316C53.078 32.5316 53.294 32.5226 53.519 32.5136C53.114 33.5306 52.367 34.9166 51.629 35.7986L52.493 36.2396C53.222 35.2496 54.005 33.6836 54.446 32.4146C55.049 32.3336 55.607 32.2166 56.057 32.0906L56.03 31.2626C55.616 31.3976 55.166 31.4966 54.707 31.5686C54.842 31.0646 54.968 30.5606 55.04 30.2456ZM54.554 36.4826C54.554 36.1136 54.959 35.8436 55.553 35.8436C55.85 35.8436 56.129 35.8886 56.39 35.9606C56.399 36.0776 56.399 36.1856 56.399 36.2666C56.399 36.7526 56.174 37.1306 55.49 37.1306C54.878 37.1306 54.554 36.8696 54.554 36.4826ZM57.155 33.0356H56.273C56.291 33.6296 56.336 34.4756 56.363 35.1866C56.12 35.1506 55.868 35.1236 55.598 35.1236C54.482 35.1236 53.717 35.7176 53.717 36.5636C53.717 37.4996 54.563 37.9496 55.607 37.9496C56.795 37.9496 57.254 37.3286 57.254 36.5636C57.254 36.4916 57.254 36.4016 57.254 36.3116C57.794 36.6086 58.253 36.9956 58.604 37.3196L59.081 36.5546C58.622 36.1496 57.992 35.6996 57.218 35.4206C57.191 34.9076 57.164 34.3856 57.155 34.0886C57.146 33.7286 57.137 33.4136 57.155 33.0356ZM58.847 33.3776L59.36 32.6306C58.91 32.3066 57.848 31.7126 57.2 31.4246L56.741 32.1176C57.353 32.3966 58.352 32.9636 58.847 33.3776ZM65.93 35.2676L65.093 35.1866C65.012 35.5556 64.94 35.9336 64.94 36.3116C64.94 37.2026 65.732 37.6796 67.199 37.6796C67.883 37.6796 68.486 37.6166 68.981 37.5536L69.008 36.6446C68.414 36.7526 67.802 36.8246 67.208 36.8246C66.056 36.8246 65.813 36.4556 65.813 36.0506C65.813 35.8256 65.858 35.5466 65.93 35.2676ZM64.904 30.3086L63.824 30.2276C63.842 30.4256 63.833 30.7586 63.788 31.0376C63.77 31.2086 63.725 31.4426 63.68 31.7126C63.365 31.7396 63.059 31.7486 62.78 31.7486C62.438 31.7486 62.123 31.7306 61.682 31.6766L61.7 32.5586C62.024 32.5856 62.357 32.5946 62.771 32.5946C62.996 32.5946 63.239 32.5856 63.5 32.5766C63.428 32.8736 63.356 33.1706 63.284 33.4496C62.942 34.7096 62.285 36.5636 61.754 37.4816L62.735 37.8146C63.221 36.7976 63.833 34.9436 64.157 33.6746C64.256 33.2966 64.355 32.8826 64.445 32.4956C65.057 32.4236 65.687 32.3246 66.254 32.1896V31.2986C65.732 31.4336 65.174 31.5326 64.625 31.6136C64.67 31.4156 64.706 31.2356 64.733 31.0826C64.769 30.9026 64.85 30.5336 64.904 30.3086ZM65.615 33.0446V33.8816C66.182 33.8186 66.731 33.7826 67.316 33.7826C67.856 33.7826 68.387 33.8366 68.846 33.8996L68.873 33.0356C68.36 32.9816 67.82 32.9636 67.298 32.9636C66.722 32.9636 66.101 32.9996 65.615 33.0446ZM78.944 34.2776C78.944 32.3966 77.576 30.8846 75.416 30.8846C73.157 30.8846 71.393 32.6126 71.393 34.6286C71.393 36.1316 72.212 37.1216 73.103 37.1216C73.994 37.1216 74.741 36.1046 75.281 34.2686C75.542 33.4226 75.695 32.5496 75.821 31.7396C77.207 31.9106 77.999 32.9456 77.999 34.2506C77.999 35.6996 76.973 36.5456 75.821 36.8066C75.596 36.8606 75.326 36.9056 75.02 36.9326L75.551 37.7786C77.738 37.4636 78.944 36.1676 78.944 34.2776ZM72.302 34.5386C72.302 33.4226 73.247 32.0186 74.867 31.7576C74.759 32.5496 74.597 33.3686 74.372 34.0796C73.958 35.4656 73.535 36.0506 73.13 36.0506C72.743 36.0506 72.302 35.5736 72.302 34.5386ZM83.498 30.2456L83.381 30.2726H81.338V38.1476H82.076V31.0286H83.093C82.931 31.6226 82.697 32.3786 82.481 32.9726C83.057 33.6476 83.201 34.2416 83.201 34.7006C83.201 34.9706 83.147 35.1956 83.03 35.2856C82.958 35.3396 82.868 35.3576 82.769 35.3666C82.634 35.3756 82.49 35.3666 82.301 35.3576C82.427 35.5556 82.499 35.8796 82.499 36.0776C82.697 36.0866 82.922 36.0866 83.084 36.0686C83.273 36.0416 83.435 35.9786 83.57 35.8886C83.831 35.6906 83.939 35.3126 83.939 34.7906C83.939 34.2416 83.804 33.6026 83.21 32.8736C83.489 32.1806 83.795 31.2896 84.047 30.5606L83.498 30.2456ZM84.731 35.6366C84.479 36.2486 84.02 36.8516 83.525 37.2476C83.705 37.3556 84.011 37.5806 84.155 37.6976C84.65 37.2476 85.163 36.5366 85.46 35.8256L84.731 35.6366ZM85.118 34.0166H87.917V34.6556H85.118V34.0166ZM85.118 32.8196H87.917V33.4586H85.118V32.8196ZM88.709 35.2586V32.2256H88.439L89.087 31.9106C88.871 31.4516 88.349 30.7856 87.881 30.3086L87.251 30.6146C87.71 31.1096 88.205 31.7756 88.421 32.2256H86.882V29.8856H86.117V32.2256H84.641C85.019 31.8026 85.424 31.1546 85.685 30.5606L84.947 30.3536C84.722 30.9206 84.326 31.5146 83.921 31.9196C84.074 31.9916 84.299 32.1176 84.461 32.2256H84.353V35.2586H86.117V37.3196C86.117 37.4186 86.09 37.4366 85.982 37.4456C85.883 37.4456 85.541 37.4456 85.19 37.4366C85.289 37.6346 85.379 37.9406 85.415 38.1476C85.937 38.1476 86.306 38.1476 86.567 38.0306C86.828 37.9136 86.891 37.7066 86.891 37.3376V35.2586H88.709ZM87.44 35.8976C87.89 36.4286 88.376 37.1666 88.565 37.6346L89.267 37.3016C89.06 36.8156 88.556 36.1136 88.088 35.5916L87.44 35.8976ZM93.839 30.8756V31.4966H92.138V30.8756H93.839ZM92.138 32.7566V32.0906H93.839V32.7566H92.138ZM94.631 33.3776V30.2456H91.31V38.1476H92.138V33.3776H94.631ZM96.143 32.7746V32.0906H97.898V32.7746H96.143ZM97.898 30.8756V31.4966H96.143V30.8756H97.898ZM94.064 36.6896V35.9426H95.891V36.6896H94.064ZM95.891 34.6286V35.3306H94.064V34.6286H95.891ZM98.744 30.2456H95.342V33.3956H97.898V37.0946C97.898 37.2476 97.853 37.2926 97.691 37.3016C97.547 37.3016 97.115 37.3106 96.674 37.2926V33.9986H93.299V37.7696H94.064V37.3196H96.494C96.602 37.5536 96.719 37.9136 96.755 38.1386C97.511 38.1386 98.006 38.1296 98.321 37.9946C98.645 37.8506 98.744 37.5806 98.744 37.1036V30.2456ZM102.938 31.2086V33.0176H101.858V31.2086H102.938ZM101.858 35.6546V33.7556H102.938V35.6546H101.858ZM103.73 30.4526H101.084V37.1576H101.858V36.4016H103.73V30.4526ZM104.378 35.6096C104.81 36.0776 105.278 36.7166 105.467 37.1486L106.178 36.7166C105.98 36.2846 105.485 35.6726 105.053 35.2226L104.378 35.6096ZM109.049 33.3596V32.6216H106.862V31.6316H108.716V30.9026H106.862V29.8766H106.025V30.9026H104.225V31.6316H106.025V32.6216H103.883V33.3596H107.186V34.2596H103.91V34.9976H107.186V37.1936C107.186 37.3196 107.141 37.3556 106.997 37.3646C106.862 37.3646 106.367 37.3646 105.863 37.3466C105.98 37.5806 106.097 37.9046 106.133 38.1296C106.835 38.1296 107.294 38.1206 107.609 37.9946C107.906 37.8686 108.005 37.6436 108.005 37.2116V34.9976H108.968V34.2596H108.005V33.3596H109.049ZM113.639 30.8756V31.4966H111.938V30.8756H113.639ZM111.938 32.7566V32.0906H113.639V32.7566H111.938ZM114.431 33.3776V30.2456H111.11V38.1476H111.938V33.3776H114.431ZM115.943 32.7746V32.0906H117.698V32.7746H115.943ZM117.698 30.8756V31.4966H115.943V30.8756H117.698ZM113.864 36.6896V35.9426H115.691V36.6896H113.864ZM115.691 34.6286V35.3306H113.864V34.6286H115.691ZM118.544 30.2456H115.142V33.3956H117.698V37.0946C117.698 37.2476 117.653 37.2926 117.491 37.3016C117.347 37.3016 116.915 37.3106 116.474 37.2926V33.9986H113.099V37.7696H113.864V37.3196H116.294C116.402 37.5536 116.519 37.9136 116.555 38.1386C117.311 38.1386 117.806 38.1296 118.121 37.9946C118.445 37.8506 118.544 37.5806 118.544 37.1036V30.2456ZM124.268 31.2626L124.277 32.1806C125.321 32.2886 127.022 32.2796 128.048 32.1806V31.2626C127.112 31.3886 125.303 31.4246 124.268 31.2626ZM124.781 35.0066L123.971 34.9346C123.863 35.3756 123.818 35.7176 123.818 36.0416C123.818 36.9146 124.52 37.4456 126.05 37.4456C127.013 37.4456 127.76 37.3736 128.327 37.2656L128.309 36.3026C127.553 36.4736 126.878 36.5456 126.068 36.5456C124.979 36.5456 124.664 36.2126 124.664 35.8076C124.664 35.5646 124.7 35.3216 124.781 35.0066ZM122.702 30.6146L121.703 30.5246C121.694 30.7676 121.658 31.0466 121.622 31.2716C121.523 31.9916 121.235 33.5216 121.235 34.8626C121.235 36.0776 121.388 37.1396 121.568 37.7696L122.387 37.7156C122.378 37.6076 122.369 37.4726 122.369 37.3826C122.36 37.2836 122.387 37.0946 122.414 36.9686C122.504 36.5186 122.819 35.5556 123.053 34.8716L122.603 34.5116C122.459 34.8446 122.279 35.2856 122.126 35.6546C122.09 35.3216 122.072 35.0066 122.072 34.6916C122.072 33.7286 122.36 32.0366 122.513 31.2986C122.549 31.1366 122.639 30.7766 122.702 30.6146ZM136.553 32.8916C136.553 34.1156 136.472 35.6366 135.824 36.8966C135.428 36.9326 135.032 36.9686 134.645 37.0046V36.4016H135.959V35.7806H134.645V35.2676H135.941V32.6396H134.645V32.1446H135.977V32.6666H136.553V32.8916ZM133.25 34.1876H133.988V34.7366H133.25V34.1876ZM133.25 33.1706H133.988V33.6926H133.25V33.1706ZM134.573 33.6926V33.1706H135.356V33.6926H134.573ZM134.573 34.7366V34.1876H135.356V34.7366H134.573ZM137.273 31.9376V29.9216H136.553V31.9376H136.013V31.5146H134.645V30.9836C135.14 30.9296 135.599 30.8486 135.995 30.7586L135.563 30.1556C134.825 30.3356 133.61 30.4796 132.584 30.5786C132.638 30.4256 132.683 30.2726 132.728 30.1286L131.981 29.9306C131.621 31.2536 131 32.5676 130.316 33.4316C130.433 33.6386 130.649 34.1066 130.703 34.3136C130.937 34.0256 131.162 33.6926 131.369 33.3236V38.1566H132.125V31.8026C132.287 31.4246 132.431 31.0286 132.566 30.6416C132.629 30.7946 132.692 31.0016 132.719 31.1636C133.106 31.1366 133.52 31.1096 133.934 31.0646V31.5146H132.584V32.1446H133.934V32.6396H132.683V35.2676H133.934V35.7806H132.665V36.4016H133.934V37.0676C133.376 37.1126 132.872 37.1576 132.458 37.1846L132.575 37.8866C133.358 37.8056 134.375 37.6886 135.401 37.5716C135.356 37.6256 135.302 37.6886 135.257 37.7426C135.446 37.8416 135.725 38.0486 135.86 38.1836C137.102 36.7256 137.273 34.6016 137.273 32.8826V32.6666H137.93C137.867 35.8796 137.795 36.9956 137.624 37.2386C137.552 37.3556 137.48 37.3826 137.363 37.3826C137.219 37.3826 136.949 37.3736 136.625 37.3556C136.742 37.5626 136.814 37.8776 136.832 38.0846C137.165 38.1026 137.489 38.0936 137.714 38.0666C137.957 38.0216 138.11 37.9496 138.272 37.7156C138.515 37.3466 138.569 36.0866 138.65 32.2976C138.65 32.2076 138.659 31.9376 138.659 31.9376H137.273ZM146.921 30.3626H145.877C145.904 30.4976 145.949 30.7226 145.967 30.9296C145.985 31.1636 146.003 31.7036 146.012 32.2526C145.643 32.2616 145.274 32.2706 144.932 32.2706C144.446 32.2706 143.924 32.2346 143.519 32.1716V33.0806C143.933 33.0986 144.527 33.1256 144.941 33.1256C145.292 33.1256 145.661 33.1166 146.03 33.1076C146.03 33.2156 146.03 33.3146 146.03 33.4046C146.03 35.0426 145.931 35.9696 145.094 36.7526C144.86 37.0046 144.455 37.2566 144.14 37.3826L144.968 38.0306C146.822 36.8966 146.894 35.5016 146.894 33.4136C146.894 33.3236 146.894 33.2066 146.894 33.0626C147.416 33.0356 147.911 32.9816 148.298 32.9276L148.307 32.0096C147.902 32.0906 147.407 32.1536 146.885 32.1986C146.876 31.6586 146.867 31.1276 146.876 30.9296C146.885 30.7226 146.894 30.5246 146.921 30.3626ZM142.394 30.4976L141.341 30.3986C141.341 30.5876 141.332 30.8486 141.296 31.0736C141.188 31.8206 140.972 33.1976 140.972 34.6736C140.972 35.7896 141.278 37.0046 141.467 37.5536L142.25 37.4636C142.241 37.3556 142.223 37.2206 142.223 37.1306C142.223 37.0316 142.241 36.8426 142.268 36.7076C142.376 36.2396 142.628 35.3216 142.871 34.6376L142.403 34.3406C142.25 34.7366 142.061 35.2406 141.944 35.5736C141.647 34.2596 141.962 32.3246 142.214 31.1456C142.259 30.9746 142.331 30.6866 142.394 30.4976ZM153.284 36.4376C153.284 36.1676 153.563 35.9246 153.941 35.9246C154.535 35.9246 154.931 36.3836 155.003 37.0406C154.805 37.0676 154.589 37.0766 154.364 37.0766C153.725 37.0766 153.284 36.8336 153.284 36.4376ZM151.97 30.7046L151.997 31.6316C152.204 31.6046 152.438 31.5866 152.663 31.5776C153.131 31.5506 154.688 31.4786 155.165 31.4606C154.715 31.8566 153.671 32.7206 153.167 33.1346C152.636 33.5756 151.511 34.5206 150.809 35.0966L151.466 35.7626C152.528 34.6286 153.374 33.9536 154.814 33.9536C155.939 33.9536 156.767 34.5656 156.767 35.4116C156.767 36.0686 156.434 36.5546 155.813 36.8246C155.696 35.9696 155.057 35.2496 153.941 35.2496C153.05 35.2496 152.456 35.8526 152.456 36.5186C152.456 37.3376 153.284 37.8866 154.526 37.8866C156.551 37.8866 157.694 36.8606 157.694 35.4296C157.694 34.1696 156.578 33.2426 155.075 33.2426C154.715 33.2426 154.355 33.2876 153.995 33.3956C154.634 32.8736 155.741 31.9376 156.2 31.5956C156.389 31.4516 156.578 31.3256 156.767 31.2086L156.272 30.5606C156.173 30.5966 156.011 30.6146 155.696 30.6416C155.21 30.6866 153.158 30.7406 152.69 30.7406C152.474 30.7406 152.195 30.7316 151.97 30.7046ZM163.931 35.2046H164.669L164.876 31.8926L164.903 30.7046H163.697L163.724 31.8926L163.931 35.2046ZM164.3 37.4996C164.678 37.4996 164.975 37.2206 164.975 36.8156C164.975 36.4106 164.678 36.1316 164.3 36.1316C163.922 36.1316 163.625 36.4106 163.625 36.8156C163.625 37.2206 163.922 37.4996 164.3 37.4996Z" fill="black"/>
<circle cx="85" cy="26.4366" r="1" fill="#66FFCC"/>
<circle cx="95" cy="26.4366" r="1" fill="#66FFCC"/>
<circle cx="105" cy="26.4366" r="1" fill="#66FFCC"/>
<circle cx="115" cy="26.4366" r="1" fill="#66FFCC"/>
<defs>
<linearGradient id="paint0_linear_24_513" x1="16.1153" y1="2.88142" x2="33.4508" y2="13.4639" gradientUnits="userSpaceOnUse">
<stop stop-color="#009471"/>
<stop offset="0.59" stop-color="#66FFCC"/>
<stop offset="1" stop-color="#66FFCC"/>
</linearGradient>
<linearGradient id="paint1_linear_24_513" x1="17.2745" y1="34.6006" x2="-0.15954" y2="24.1824" gradientUnits="userSpaceOnUse">
<stop stop-color="#D42300"/>
<stop offset="0.59" stop-color="#FF6666"/>
<stop offset="1" stop-color="#FF6666"/>
</linearGradient>
<clipPath id="clip0_24_513">
<rect width="33.6667" height="37.7448" fill="white"/>
</clipPath>
</defs>
</svg>
