<svg width="165" height="38" viewBox="0 0 165 38" fill="none" xmlns="http://www.w3.org/2000/svg">
<g clip-path="url(#clip0_288_403)">
<path d="M30.1095 30.1001C28.1667 30.1001 26.5898 28.5233 26.5898 26.5804V11.2582C26.5898 9.31533 28.1667 7.73853 30.1095 7.73853C32.0524 7.73853 33.6292 9.31533 33.6292 11.2582V26.5804C33.6292 28.5233 32.0524 30.1001 30.1095 30.1001Z" fill="#66FFCC"/>
<path d="M30.1424 14.7498C29.5464 14.7498 28.941 14.5996 28.3872 14.2758L15.1204 6.61705C13.4357 5.64562 12.8585 3.49159 13.8299 1.80684C14.8013 0.1221 16.9554 -0.455124 18.6401 0.516302L31.9116 8.17508C33.5963 9.14651 34.1735 11.3005 33.2021 12.9853C32.5498 14.1163 31.3672 14.7451 30.1517 14.7451L30.1424 14.7498Z" fill="url(#paint0_linear_288_403)"/>
<path d="M3.60415 14.7029C2.38869 14.7029 1.20609 14.0693 0.553778 12.943C-0.417648 11.2583 0.159576 9.10897 1.84432 8.13285L15.1111 0.474066C16.7958 -0.49736 18.9452 0.079864 19.9213 1.76461C20.8927 3.44935 20.3155 5.59869 18.6308 6.57481L5.36398 14.2289C4.81022 14.548 4.20484 14.7029 3.60884 14.7029H3.60415Z" fill="#FF6666"/>
<path d="M3.5572 30.0064C1.61434 30.0064 0.0375366 28.4295 0.0375366 26.4867V11.1644C0.0375366 9.22158 1.61434 7.64478 3.5572 7.64478C5.50005 7.64478 7.07686 9.22158 7.07686 11.1644V26.4867C7.07686 28.4295 5.50005 30.0064 3.5572 30.0064Z" fill="#FF6666"/>
<path d="M16.7865 37.6978C16.1905 37.6978 15.5851 37.5476 15.0313 37.2238L1.75985 29.565C0.0751032 28.5936 -0.502121 26.4396 0.469305 24.7548C1.44073 23.0701 3.59476 22.4929 5.27951 23.4643L18.551 31.1278C20.2357 32.0992 20.8129 34.2532 19.8415 35.938C19.1892 37.069 18.0066 37.6978 16.7911 37.6978H16.7865Z" fill="url(#paint1_linear_288_403)"/>
<path d="M16.8005 37.7449C15.585 37.7449 14.4024 37.1113 13.7501 35.985C12.7787 34.3003 13.3559 32.151 15.0407 31.1748L28.3121 23.5161C29.9969 22.5446 32.1462 23.1219 33.1223 24.8066C34.0938 26.4913 33.5165 28.6407 31.8318 29.6168L18.5603 37.2756C18.0066 37.5947 17.4012 37.7496 16.8052 37.7496L16.8005 37.7449Z" fill="#66FFCC"/>
</g>
<path d="M43.9629 22.3582C43.5124 22.3582 43.137 22.2231 42.8366 21.9528C42.5363 21.6824 42.3861 21.337 42.3861 20.9166V5.14849C42.3861 4.69797 42.5363 4.33756 42.8366 4.06725C43.137 3.79694 43.5124 3.66178 43.9629 3.66178C44.4435 3.66178 44.8189 3.79694 45.0892 4.06725C45.3896 4.33756 45.5397 4.69797 45.5397 5.14849V9.6987C45.5397 10.5997 45.9602 11.0503 46.8012 11.0503H53.2886C54.1296 11.0503 54.5501 10.5997 54.5501 9.6987V5.14849C54.5501 4.69797 54.6852 4.33756 54.9555 4.06725C55.2559 3.79694 55.6463 3.66178 56.1269 3.66178C56.6074 3.66178 56.9828 3.79694 57.2532 4.06725C57.5535 4.33756 57.7037 4.69797 57.7037 5.14849V20.9166C57.7037 21.337 57.5535 21.6824 57.2532 21.9528C56.9828 22.2231 56.6074 22.3582 56.1269 22.3582C55.6463 22.3582 55.2559 22.2231 54.9555 21.9528C54.6852 21.6824 54.5501 21.337 54.5501 20.9166V15.195C54.5501 14.294 54.1296 13.8435 53.2886 13.8435H46.8012C45.9602 13.8435 45.5397 14.294 45.5397 15.195V20.9166C45.5397 21.337 45.3896 21.6824 45.0892 21.9528C44.8189 22.2231 44.4435 22.3582 43.9629 22.3582Z" fill="white"/>
<path d="M64.2221 21.9077C63.4712 21.9077 62.8705 21.6824 62.42 21.2319C61.9695 20.7814 61.7442 20.1807 61.7442 19.4299V6.22973C61.7442 5.53893 61.9695 4.9833 62.42 4.56281C62.9006 4.1123 63.4562 3.88704 64.0869 3.88704H70.8897C71.4003 3.88704 71.7607 4.02219 71.971 4.2925C72.2112 4.53278 72.3314 4.84814 72.3314 5.23859C72.3314 5.599 72.1962 5.91436 71.9259 6.18467C71.6856 6.45498 71.3402 6.59014 70.8897 6.59014H66.0692C65.2883 6.59014 64.8979 6.98059 64.8979 7.76148V10.2393C64.8979 11.0202 65.2583 11.4107 65.9791 11.4107H70.4392C70.9498 11.4107 71.3102 11.5458 71.5204 11.8161C71.7607 12.0864 71.8809 12.4018 71.8809 12.7622C71.8809 13.0926 71.7457 13.408 71.4754 13.7083C71.2351 13.9786 70.8897 14.1138 70.4392 14.1138H65.9791C65.2583 14.1138 64.8979 14.4892 64.8979 15.2401V17.9882C64.8979 18.7691 65.2733 19.1596 66.0241 19.1596H71.3402C71.8508 19.1596 72.2112 19.3097 72.4215 19.6101C72.6618 19.8804 72.7819 20.1957 72.7819 20.5562C72.7819 20.9166 72.6467 21.2319 72.3764 21.5022C72.1362 21.7725 71.7908 21.9077 71.3402 21.9077H64.2221Z" fill="white"/>
<path d="M76.3551 22.3582C75.9346 22.3582 75.5291 22.208 75.1387 21.9077C74.7782 21.5773 74.598 21.2019 74.598 20.7814C74.598 20.4811 74.6881 20.1957 74.8684 19.9254L79.5537 13.9336C79.794 13.6633 79.9141 13.3479 79.9141 12.9875C79.9141 12.6271 79.794 12.3117 79.5537 12.0414L74.9585 6.13962C74.8083 5.86931 74.7332 5.58398 74.7332 5.28364C74.7332 4.83312 74.9134 4.45769 75.2738 4.15735C75.6342 3.82697 76.0097 3.66178 76.4001 3.66178C76.8206 3.66178 77.166 3.84199 77.4363 4.2024L81.4008 9.74375C81.581 10.0141 81.7913 10.1492 82.0316 10.1492C82.2718 10.1492 82.4821 10.0141 82.6623 9.74375L86.6268 4.2024C86.8971 3.84199 87.2425 3.66178 87.663 3.66178C88.1436 3.66178 88.549 3.81195 88.8794 4.1123C89.2398 4.41264 89.42 4.77306 89.42 5.19354C89.42 5.52392 89.3149 5.83928 89.1047 6.13962L84.5094 11.9963C84.2391 12.2967 84.1039 12.6271 84.1039 12.9875C84.1039 13.2578 84.2241 13.5581 84.4644 13.8885L89.1948 19.9254C89.375 20.1957 89.4651 20.4811 89.4651 20.7814C89.4651 21.2019 89.2699 21.5773 88.8794 21.9077C88.519 22.208 88.1286 22.3582 87.7081 22.3582C87.2876 22.3582 86.9422 22.178 86.6719 21.8176L82.6172 16.1861C82.437 15.9158 82.2268 15.7807 81.9865 15.7807C81.7462 15.7807 81.536 15.9158 81.3558 16.1861L77.3912 21.8176C77.1209 22.178 76.7755 22.3582 76.3551 22.3582Z" fill="white"/>
<path d="M92.2857 22.3582C91.8953 22.3582 91.5499 22.2231 91.2496 21.9528C90.9492 21.6824 90.799 21.322 90.799 20.8715C90.799 20.7213 90.8291 20.5261 90.8891 20.2858L96.5206 5.01333C96.7308 4.50274 97.0462 4.1123 97.4667 3.84199C97.8872 3.57168 98.3377 3.43652 98.8182 3.43652C99.2988 3.43652 99.7493 3.57168 100.17 3.84199C100.62 4.1123 100.951 4.50274 101.161 5.01333L107.153 20.2858C107.213 20.5261 107.243 20.7213 107.243 20.8715C107.243 21.322 107.093 21.6824 106.792 21.9528C106.492 22.2231 106.147 22.3582 105.756 22.3582C105.486 22.3582 105.201 22.2831 104.9 22.133C104.63 22.0128 104.42 21.8026 104.269 21.5022L102.783 17.5377C102.753 17.3575 102.633 17.2674 102.422 17.2674H95.5295C95.3192 17.2674 95.1841 17.3575 95.124 17.5377L93.7724 21.5022C93.6223 21.8026 93.397 22.0128 93.0967 22.133C92.8264 22.2831 92.556 22.3582 92.2857 22.3582ZM96.881 14.5643H100.936C101.116 14.5643 101.251 14.5042 101.341 14.3841C101.461 14.2339 101.491 14.0537 101.431 13.8435L99.2687 7.67138C99.1786 7.37103 99.0435 7.22086 98.8633 7.22086C98.653 7.22086 98.5029 7.37103 98.4128 7.67138L96.3854 13.8885C96.3254 14.0687 96.3404 14.2339 96.4305 14.3841C96.5506 14.5042 96.7008 14.5643 96.881 14.5643Z" fill="white"/>
<path d="M121.14 22.3582C120.569 22.3582 119.999 22.2831 119.428 22.133C118.887 21.9828 118.362 21.7575 117.851 21.4572C117.641 21.307 117.476 21.1118 117.356 20.8715C117.235 20.6012 117.175 20.3609 117.175 20.1507C117.175 19.7302 117.326 19.3698 117.626 19.0695C117.926 18.7391 118.272 18.5739 118.662 18.5739C118.932 18.5739 119.173 18.6339 119.383 18.7541C120.104 19.1445 120.764 19.3398 121.365 19.3398C122.627 19.3398 123.257 18.4087 123.257 16.5466V5.14849C123.257 4.69797 123.393 4.33756 123.663 4.06725C123.963 3.79694 124.354 3.66178 124.834 3.66178C125.315 3.66178 125.69 3.79694 125.96 4.06725C126.261 4.33756 126.411 4.69797 126.411 5.14849V16.6367C126.411 18.5589 125.885 20.0005 124.834 20.9616C123.813 21.8927 122.582 22.3582 121.14 22.3582Z" fill="white"/>
<path d="M138.98 22.3582C137.238 22.3582 135.647 21.9528 134.205 21.1418C132.793 20.3009 131.667 19.1746 130.826 17.7629C129.985 16.3213 129.565 14.6994 129.565 12.8974C129.565 11.0052 129.985 9.35331 130.826 7.94169C131.667 6.53007 132.793 5.43381 134.205 4.65292C135.647 3.84199 137.238 3.43652 138.98 3.43652C140.722 3.43652 142.284 3.84199 143.666 4.65292C145.077 5.43381 146.189 6.53007 147 7.94169C147.841 9.35331 148.261 11.0052 148.261 12.8974C148.261 14.6994 147.841 16.3213 147 17.7629C146.189 19.1746 145.077 20.3009 143.666 21.1418C142.284 21.9528 140.722 22.3582 138.98 22.3582ZM138.98 19.6101C140.182 19.6101 141.233 19.3097 142.134 18.709C143.065 18.0783 143.786 17.2524 144.296 16.2312C144.807 15.21 145.062 14.0987 145.062 12.8974C145.062 10.9752 144.492 9.38334 143.35 8.12189C142.209 6.86045 140.752 6.22973 138.98 6.22973C137.178 6.22973 135.707 6.86045 134.565 8.12189C133.424 9.38334 132.853 10.9752 132.853 12.8974C132.853 14.0987 133.109 15.21 133.619 16.2312C134.13 17.2524 134.851 18.0783 135.782 18.709C136.713 19.3097 137.779 19.6101 138.98 19.6101Z" fill="white"/>
<path d="M153.885 21.9077C153.255 21.9077 152.684 21.6975 152.173 21.277C151.663 20.8265 151.408 20.2108 151.408 19.4299V6.22973C151.408 5.53893 151.633 4.9833 152.083 4.56281C152.564 4.1123 153.12 3.88704 153.75 3.88704H157.985C159.397 3.88704 160.643 4.27749 161.724 5.05838C162.806 5.80924 163.346 6.89048 163.346 8.3021C163.346 9.05296 163.181 9.75877 162.851 10.4195C162.55 11.0503 162.145 11.5308 161.634 11.8612C162.505 12.1615 163.196 12.7172 163.707 13.5281C164.217 14.309 164.473 15.2401 164.473 16.3213C164.473 18.1234 163.932 19.5049 162.851 20.4661C161.769 21.4272 160.418 21.9077 158.796 21.9077H153.885ZM155.642 19.1596H158.796C159.757 19.1596 160.448 18.8742 160.868 18.3036C161.319 17.7029 161.544 17.0571 161.544 16.3663C161.544 15.7356 161.334 15.1349 160.913 14.5643C160.493 13.9936 159.847 13.7083 158.976 13.7083H155.462C154.801 13.7083 154.471 14.0537 154.471 14.7445V17.9882C154.471 18.7691 154.862 19.1596 155.642 19.1596ZM155.462 11.1854H158.075C158.826 11.1854 159.397 10.9301 159.787 10.4195C160.178 9.90894 160.373 9.36832 160.373 8.79767C160.373 8.25705 160.178 7.76148 159.787 7.31097C159.427 6.83042 158.856 6.59014 158.075 6.59014H155.687C154.877 6.59014 154.471 6.98059 154.471 7.76148V10.1492C154.471 10.84 154.801 11.1854 155.462 11.1854Z" fill="white"/>
<path d="M45.4365 33.1074H44.061V35.4365H42.7163V28.959H45.5376C46.188 28.959 46.7065 29.126 47.0933 29.46C47.48 29.7939 47.6733 30.311 47.6733 31.0112C47.6733 31.7759 47.48 32.3164 47.0933 32.6328C46.7065 32.9492 46.1543 33.1074 45.4365 33.1074ZM46.0693 31.7583C46.2451 31.603 46.333 31.3569 46.333 31.02C46.333 30.6831 46.2437 30.4429 46.0649 30.2993C45.8892 30.1558 45.6416 30.084 45.3223 30.084H44.061V31.9912H45.3223C45.6416 31.9912 45.8906 31.9136 46.0693 31.7583ZM48.9135 28.959H50.267V34.272H53.475V35.4365H48.9135V28.959ZM58.4329 34.105H56.0467L55.5984 35.4365H54.1834L56.4949 28.959H58.0242L60.3182 35.4365H58.8504L58.4329 34.105ZM58.055 32.9888L57.2464 30.4399L56.4114 32.9888H58.055ZM65.4079 28.959V30.106H63.4699V35.4365H62.1076V30.106H60.1608V28.959H65.4079ZM71.0206 30.106H67.773V31.5957H70.6163V32.7207H67.773V35.4365H66.4283V28.9678H71.0206V30.106ZM75.0205 35.6167C74.0947 35.6167 73.3872 35.3647 72.8979 34.8608C72.2417 34.2427 71.9136 33.3521 71.9136 32.189C71.9136 31.0024 72.2417 30.1118 72.8979 29.5171C73.3872 29.0132 74.0947 28.7612 75.0205 28.7612C75.9463 28.7612 76.6538 29.0132 77.1431 29.5171C77.7964 30.1118 78.123 31.0024 78.123 32.189C78.123 33.3521 77.7964 34.2427 77.1431 34.8608C76.6538 35.3647 75.9463 35.6167 75.0205 35.6167ZM76.2993 33.8765C76.6128 33.481 76.7695 32.9185 76.7695 32.189C76.7695 31.4624 76.6113 30.9014 76.2949 30.5059C75.9814 30.1074 75.5566 29.9082 75.0205 29.9082C74.4844 29.9082 74.0566 30.106 73.7373 30.5015C73.418 30.897 73.2583 31.4595 73.2583 32.189C73.2583 32.9185 73.418 33.481 73.7373 33.8765C74.0566 34.272 74.4844 34.4697 75.0205 34.4697C75.5566 34.4697 75.9829 34.272 76.2993 33.8765ZM82.1361 32.8965H80.7387V35.4365H79.4159V28.959H82.5932C83.0473 28.9678 83.3959 29.0234 83.6391 29.126C83.8852 29.2285 84.0932 29.3794 84.2631 29.5786C84.4037 29.7427 84.515 29.9243 84.5971 30.1235C84.6791 30.3228 84.7201 30.5498 84.7201 30.8047C84.7201 31.1123 84.6425 31.4155 84.4872 31.7144C84.3319 32.0103 84.0756 32.2197 83.7182 32.3428C84.017 32.4629 84.2279 32.6343 84.351 32.8569C84.477 33.0767 84.5399 33.4136 84.5399 33.8677V34.3027C84.5399 34.5986 84.5517 34.7993 84.5751 34.9048C84.6103 35.0718 84.6923 35.1948 84.8212 35.2739V35.4365H83.3314C83.2904 35.293 83.2611 35.1772 83.2436 35.0894C83.2084 34.9077 83.1894 34.7217 83.1864 34.5312L83.1776 33.9292C83.1718 33.5161 83.0956 33.2407 82.9491 33.103C82.8056 32.9653 82.5346 32.8965 82.1361 32.8965ZM82.9579 31.7188C83.2274 31.5957 83.3622 31.3525 83.3622 30.9893C83.3622 30.5967 83.2318 30.333 82.9711 30.1982C82.8246 30.1221 82.6049 30.084 82.3119 30.084H80.7387V31.8242H82.2724C82.577 31.8242 82.8056 31.7891 82.9579 31.7188ZM87.3533 35.4365H86.0921V28.959H88.0608L89.2386 34.0522L90.4075 28.959H92.3543V35.4365H91.0931V31.0552C91.0931 30.9292 91.0945 30.7534 91.0975 30.5278C91.1004 30.2993 91.1019 30.1235 91.1019 30.0005L89.8758 35.4365H88.5618L87.3445 30.0005C87.3445 30.1235 87.346 30.2993 87.3489 30.5278C87.3519 30.7534 87.3533 30.9292 87.3533 31.0552V35.4365ZM101.158 30.106H97.9107V31.5957H100.754V32.7207H97.9107V35.4365H96.566V28.9678H101.158V30.106ZM105.158 35.6167C104.232 35.6167 103.525 35.3647 103.036 34.8608C102.379 34.2427 102.051 33.3521 102.051 32.189C102.051 31.0024 102.379 30.1118 103.036 29.5171C103.525 29.0132 104.232 28.7612 105.158 28.7612C106.084 28.7612 106.792 29.0132 107.281 29.5171C107.934 30.1118 108.261 31.0024 108.261 32.189C108.261 33.3521 107.934 34.2427 107.281 34.8608C106.792 35.3647 106.084 35.6167 105.158 35.6167ZM106.437 33.8765C106.75 33.481 106.907 32.9185 106.907 32.189C106.907 31.4624 106.749 30.9014 106.433 30.5059C106.119 30.1074 105.694 29.9082 105.158 29.9082C104.622 29.9082 104.194 30.106 103.875 30.5015C103.556 30.897 103.396 31.4595 103.396 32.189C103.396 32.9185 103.556 33.481 103.875 33.8765C104.194 34.272 104.622 34.4697 105.158 34.4697C105.694 34.4697 106.121 34.272 106.437 33.8765ZM112.274 32.8965H110.876V35.4365H109.554V28.959H112.731C113.185 28.9678 113.534 29.0234 113.777 29.126C114.023 29.2285 114.231 29.3794 114.401 29.5786C114.541 29.7427 114.653 29.9243 114.735 30.1235C114.817 30.3228 114.858 30.5498 114.858 30.8047C114.858 31.1123 114.78 31.4155 114.625 31.7144C114.47 32.0103 114.213 32.2197 113.856 32.3428C114.155 32.4629 114.366 32.6343 114.489 32.8569C114.615 33.0767 114.678 33.4136 114.678 33.8677V34.3027C114.678 34.5986 114.689 34.7993 114.713 34.9048C114.748 35.0718 114.83 35.1948 114.959 35.2739V35.4365H113.469C113.428 35.293 113.399 35.1772 113.381 35.0894C113.346 34.9077 113.327 34.7217 113.324 34.5312L113.315 33.9292C113.309 33.5161 113.233 33.2407 113.087 33.103C112.943 32.9653 112.672 32.8965 112.274 32.8965ZM113.096 31.7188C113.365 31.5957 113.5 31.3525 113.5 30.9893C113.5 30.5967 113.37 30.333 113.109 30.1982C112.962 30.1221 112.743 30.084 112.45 30.084H110.876V31.8242H112.41C112.715 31.8242 112.943 31.7891 113.096 31.7188ZM123.552 34.9531C123.069 35.3955 122.45 35.6167 121.697 35.6167C120.766 35.6167 120.033 35.3179 119.5 34.7202C118.967 34.1196 118.7 33.2964 118.7 32.2505C118.7 31.1196 119.004 30.248 119.61 29.6357C120.137 29.1025 120.808 28.8359 121.623 28.8359C122.713 28.8359 123.509 29.1934 124.013 29.9082C124.292 30.3096 124.441 30.7124 124.462 31.1167H123.108C123.02 30.8062 122.907 30.5718 122.77 30.4136C122.524 30.1323 122.159 29.9917 121.675 29.9917C121.183 29.9917 120.795 30.1909 120.511 30.5894C120.227 30.9849 120.085 31.5459 120.085 32.2725C120.085 32.999 120.234 33.5439 120.533 33.9072C120.835 34.2676 121.217 34.4478 121.68 34.4478C122.154 34.4478 122.516 34.2925 122.765 33.9819C122.903 33.8149 123.017 33.5645 123.108 33.2305H124.448C124.331 33.9365 124.032 34.5107 123.552 34.9531ZM128.576 35.6167C127.65 35.6167 126.942 35.3647 126.453 34.8608C125.797 34.2427 125.469 33.3521 125.469 32.189C125.469 31.0024 125.797 30.1118 126.453 29.5171C126.942 29.0132 127.65 28.7612 128.576 28.7612C129.502 28.7612 130.209 29.0132 130.698 29.5171C131.352 30.1118 131.678 31.0024 131.678 32.189C131.678 33.3521 131.352 34.2427 130.698 34.8608C130.209 35.3647 129.502 35.6167 128.576 35.6167ZM129.855 33.8765C130.168 33.481 130.325 32.9185 130.325 32.189C130.325 31.4624 130.167 30.9014 129.85 30.5059C129.537 30.1074 129.112 29.9082 128.576 29.9082C128.04 29.9082 127.612 30.106 127.293 30.5015C126.973 30.897 126.814 31.4595 126.814 32.189C126.814 32.9185 126.973 33.481 127.293 33.8765C127.612 34.272 128.04 34.4697 128.576 34.4697C129.112 34.4697 129.538 34.272 129.855 33.8765ZM134.18 35.4365H132.918V28.959H134.887L136.065 34.0522L137.234 28.959H139.181V35.4365H137.919V31.0552C137.919 30.9292 137.921 30.7534 137.924 30.5278C137.927 30.2993 137.928 30.1235 137.928 30.0005L136.702 35.4365H135.388L134.171 30.0005C134.171 30.1235 134.172 30.2993 134.175 30.5278C134.178 30.7534 134.18 30.9292 134.18 31.0552V35.4365ZM143.413 33.1074H142.038V35.4365H140.693V28.959H143.515C144.165 28.959 144.683 29.126 145.07 29.46C145.457 29.7939 145.65 30.311 145.65 31.0112C145.65 31.7759 145.457 32.3164 145.07 32.6328C144.683 32.9492 144.131 33.1074 143.413 33.1074ZM144.046 31.7583C144.222 31.603 144.31 31.3569 144.31 31.02C144.31 30.6831 144.221 30.4429 144.042 30.2993C143.866 30.1558 143.619 30.084 143.299 30.084H142.038V31.9912H143.299C143.619 31.9912 143.868 31.9136 144.046 31.7583ZM150.015 34.105H147.629L147.18 35.4365H145.765L148.077 28.959H149.606L151.9 35.4365H150.432L150.015 34.105ZM149.637 32.9888L148.828 30.4399L147.993 32.9888H149.637ZM158.19 35.4365H156.836L154.191 30.8354V35.4365H152.929V28.959H154.349L156.928 33.481V28.959H158.19V35.4365ZM164.91 28.959L162.743 33.002V35.4365H161.39V33.002L159.149 28.959H160.744L162.088 31.7803L163.376 28.959H164.91Z" fill="white"/>
<defs>
<linearGradient id="paint0_linear_288_403" x1="16.1153" y1="2.88151" x2="33.4508" y2="13.464" gradientUnits="userSpaceOnUse">
<stop stop-color="#009471"/>
<stop offset="0.59" stop-color="#66FFCC"/>
<stop offset="1" stop-color="#66FFCC"/>
</linearGradient>
<linearGradient id="paint1_linear_288_403" x1="17.2745" y1="34.6005" x2="-0.15954" y2="24.1823" gradientUnits="userSpaceOnUse">
<stop stop-color="#D42300"/>
<stop offset="0.59" stop-color="#FF6666"/>
<stop offset="1" stop-color="#FF6666"/>
</linearGradient>
<clipPath id="clip0_288_403">
<rect width="33.6667" height="37.7448" fill="white"/>
</clipPath>
</defs>
</svg>
