<svg width="94" height="104" viewBox="0 0 94 104" fill="none" xmlns="http://www.w3.org/2000/svg">
<g clip-path="url(#clip0_228_1305)">
<path d="M84.068 82.7702C78.6434 82.7702 74.2409 78.4342 74.2409 73.0917V30.9582C74.2409 25.6157 78.6434 21.2798 84.068 21.2798C89.4926 21.2798 93.8952 25.6157 93.8952 30.9582V73.0917C93.8952 78.4342 89.4926 82.7702 84.068 82.7702Z" fill="#66FFCC"/>
<path d="M84.1598 40.5591C82.4957 40.5591 80.8054 40.1461 79.2593 39.2557L42.2175 18.1954C37.5135 15.5242 35.9019 9.60096 38.6142 4.96821C41.3265 0.335457 47.3407 -1.25181 52.0446 1.41944L89.0995 22.4797C93.8035 25.151 95.4151 31.0742 92.7028 35.707C90.8815 38.817 87.5796 40.5462 84.186 40.5462L84.1598 40.5591Z" fill="url(#paint0_linear_228_1305)"/>
<path d="M10.063 40.4302C6.66936 40.4302 3.36743 38.6881 1.54613 35.591C-1.16616 30.9582 0.445494 25.0479 5.14943 22.3638L42.1912 1.30348C46.8952 -1.36778 52.8963 0.21949 55.6217 4.85224C58.334 9.48499 56.7223 15.3953 52.0184 18.0795L14.9766 39.1268C13.4304 40.0044 11.7402 40.4302 10.0761 40.4302H10.063Z" fill="#FF6666"/>
<path d="M9.93197 82.5119C4.50739 82.5119 0.10482 78.1759 0.10482 72.8334V30.6999C0.10482 25.3574 4.50739 21.0215 9.93197 21.0215C15.3566 21.0215 19.7591 25.3574 19.7591 30.6999V72.8334C19.7591 78.1759 15.3566 82.5119 9.93197 82.5119Z" fill="#FF6666"/>
<path d="M46.869 103.663C45.2049 103.663 43.5146 103.25 41.9685 102.359L4.91358 81.2989C0.209646 78.6277 -1.40201 72.7045 1.31029 68.0717C4.02258 63.439 10.0368 61.8517 14.7407 64.523L51.7957 85.5962C56.4996 88.2674 58.1112 94.1906 55.3989 98.8234C53.5776 101.933 50.2757 103.663 46.8821 103.663H46.869Z" fill="url(#paint1_linear_228_1305)"/>
<path d="M46.9083 103.792C43.5146 103.792 40.2127 102.05 38.3914 98.9526C35.6791 94.3198 37.2908 88.4095 41.9947 85.7253L79.0496 64.665C83.7536 61.9938 89.7547 63.5811 92.4801 68.2138C95.1924 72.8466 93.5807 78.7569 88.8768 81.441L51.8219 102.501C50.2757 103.379 48.5855 103.805 46.9214 103.805L46.9083 103.792Z" fill="#66FFCC"/>
</g>
<g clip-path="url(#clip1_228_1305)">
<path d="M41.549 69.1944C41.5075 69.1944 41.4723 69.1798 41.4428 69.1498L26.8078 54.2837C26.7775 54.2529 26.7639 54.2204 26.7639 54.1799C26.7639 54.1393 26.7783 54.1028 26.8078 54.0728L31.1223 49.6912C31.1518 49.6612 31.1862 49.6466 31.2269 49.6466C31.2676 49.6466 31.2996 49.6604 31.3275 49.6887L41.5474 60.0677L66.5867 34.6418C66.6171 34.611 66.649 34.5972 66.6898 34.5972C66.7305 34.5972 66.7656 34.6118 66.7952 34.6418L71.1096 39.0234C71.1392 39.0534 71.1536 39.0883 71.1536 39.1297C71.1536 39.171 71.14 39.2035 71.112 39.2319L41.6528 69.1514C41.6249 69.1798 41.5905 69.1936 41.549 69.1936V69.1944Z" fill="#66FFCC"/>
</g>
<defs>
<linearGradient id="paint0_linear_228_1305" x1="44.9953" y1="7.92336" x2="92.9938" y2="37.6742" gradientUnits="userSpaceOnUse">
<stop stop-color="#009471"/>
<stop offset="0.59" stop-color="#66FFCC"/>
<stop offset="1" stop-color="#66FFCC"/>
</linearGradient>
<linearGradient id="paint1_linear_228_1305" x1="48.2317" y1="95.1456" x2="-0.0520747" y2="65.849" gradientUnits="userSpaceOnUse">
<stop stop-color="#D42300"/>
<stop offset="0.59" stop-color="#FF6666"/>
<stop offset="1" stop-color="#FF6666"/>
</linearGradient>
<clipPath id="clip0_228_1305">
<rect width="94" height="103.792" fill="white"/>
</clipPath>
<clipPath id="clip1_228_1305">
<rect width="44.3889" height="34.5972" fill="white" transform="translate(26.7639 34.5972)"/>
</clipPath>
</defs>
</svg>
