<svg width="153" height="35" viewBox="0 0 153 35" fill="none" xmlns="http://www.w3.org/2000/svg">
<g clip-path="url(#clip0_288_441)">
<path d="M27.895 27.8864C26.0951 27.8864 24.6342 26.4255 24.6342 24.6256V10.4302C24.6342 8.63027 26.0951 7.16943 27.895 7.16943C29.695 7.16943 31.1558 8.63027 31.1558 10.4302V24.6256C31.1558 26.4255 29.695 27.8864 27.895 27.8864Z" fill="#66FFCC"/>
<path d="M27.9254 13.6649C27.3733 13.6649 26.8124 13.5257 26.2994 13.2257L14.0084 6.13024C12.4475 5.23026 11.9128 3.23466 12.8127 1.67382C13.7127 0.112988 15.7083 -0.421782 17.2692 0.478197L29.5645 7.57369C31.1254 8.47367 31.6601 10.4693 30.7601 12.0301C30.1558 13.0779 29.0602 13.6605 27.9341 13.6605L27.9254 13.6649Z" fill="url(#paint0_linear_288_441)"/>
<path d="M3.33907 13.6214C2.21301 13.6214 1.11738 13.0345 0.513048 11.991C-0.386931 10.4302 0.147839 8.43895 1.70867 7.53462L13.9997 0.439135C15.5605 -0.460845 17.5518 0.0739255 18.4561 1.63476C19.3561 3.19559 18.8213 5.18685 17.2605 6.09118L4.96947 13.1823C4.45644 13.478 3.89558 13.6214 3.34342 13.6214H3.33907Z" fill="#FF6666"/>
<path d="M3.29558 27.7994C1.49563 27.7994 0.03479 26.3386 0.03479 24.5386V10.3433C0.03479 8.54336 1.49563 7.08252 3.29558 7.08252C5.09554 7.08252 6.55638 8.54336 6.55638 10.3433V24.5386C6.55638 26.3386 5.09554 27.7994 3.29558 27.7994Z" fill="#FF6666"/>
<path d="M15.5518 34.9254C14.9997 34.9254 14.4388 34.7862 13.9258 34.4862L1.63043 27.3907C0.0695921 26.4908 -0.465178 24.4952 0.434801 22.9343C1.33478 21.3735 3.33039 20.8387 4.89122 21.7387L17.1866 28.8385C18.7474 29.7385 19.2822 31.7341 18.3822 33.295C17.7779 34.3428 16.6823 34.9254 15.5562 34.9254H15.5518Z" fill="url(#paint1_linear_288_441)"/>
<path d="M15.5648 34.9689C14.4388 34.9689 13.3432 34.3819 12.7388 33.3385C11.8388 31.7776 12.3736 29.7864 13.9344 28.882L26.2298 21.7865C27.7906 20.8866 29.7819 21.4213 30.6862 22.9822C31.5862 24.543 31.0514 26.5343 29.4906 27.4386L17.1952 34.5341C16.6822 34.8297 16.1213 34.9732 15.5692 34.9732L15.5648 34.9689Z" fill="#66FFCC"/>
</g>
<path d="M40.7296 20.7136C40.3122 20.7136 39.9644 20.5884 39.6861 20.338C39.4079 20.0876 39.2687 19.7676 39.2687 19.378V4.76964C39.2687 4.35226 39.4079 4.01836 39.6861 3.76793C39.9644 3.5175 40.3122 3.39228 40.7296 3.39228C41.1748 3.39228 41.5226 3.5175 41.773 3.76793C42.0513 4.01836 42.1904 4.35226 42.1904 4.76964V8.9852C42.1904 9.81996 42.58 10.2373 43.3591 10.2373H49.3694C50.1485 10.2373 50.538 9.81996 50.538 8.9852V4.76964C50.538 4.35226 50.6633 4.01836 50.9137 3.76793C51.1919 3.5175 51.5537 3.39228 51.9989 3.39228C52.4441 3.39228 52.7919 3.5175 53.0423 3.76793C53.3206 4.01836 53.4597 4.35226 53.4597 4.76964V19.378C53.4597 19.7676 53.3206 20.0876 53.0423 20.338C52.7919 20.5884 52.4441 20.7136 51.9989 20.7136C51.5537 20.7136 51.1919 20.5884 50.9137 20.338C50.6633 20.0876 50.538 19.7676 50.538 19.378V14.0773C50.538 13.2425 50.1485 12.8251 49.3694 12.8251H43.3591C42.58 12.8251 42.1904 13.2425 42.1904 14.0773V19.378C42.1904 19.7676 42.0513 20.0876 41.773 20.338C41.5226 20.5884 41.1748 20.7136 40.7296 20.7136Z" fill="black"/>
<path d="M59.4987 20.2962C58.8031 20.2962 58.2466 20.0876 57.8292 19.6702C57.4118 19.2528 57.2031 18.6963 57.2031 18.0006V5.77136C57.2031 5.13138 57.4118 4.6166 57.8292 4.22705C58.2744 3.80967 58.7892 3.60098 59.3735 3.60098H65.676C66.149 3.60098 66.4829 3.72619 66.6777 3.97662C66.9003 4.19922 67.0116 4.49139 67.0116 4.85312C67.0116 5.18703 66.8864 5.47919 66.6359 5.72962C66.4133 5.98005 66.0933 6.10527 65.676 6.10527H61.21C60.4865 6.10527 60.1248 6.467 60.1248 7.19046V9.48606C60.1248 10.2095 60.4587 10.5713 61.1265 10.5713H65.2586C65.7316 10.5713 66.0655 10.6965 66.2603 10.9469C66.4829 11.1973 66.5942 11.4895 66.5942 11.8234C66.5942 12.1295 66.469 12.4216 66.2186 12.6999C65.996 12.9503 65.676 13.0755 65.2586 13.0755H61.1265C60.4587 13.0755 60.1248 13.4234 60.1248 14.119V16.665C60.1248 17.3885 60.4726 17.7502 61.1682 17.7502H66.0933C66.5664 17.7502 66.9003 17.8893 67.0951 18.1676C67.3177 18.418 67.429 18.7102 67.429 19.0441C67.429 19.378 67.3038 19.6702 67.0533 19.9206C66.8307 20.171 66.5107 20.2962 66.0933 20.2962H59.4987Z" fill="black"/>
<path d="M70.7393 20.7136C70.3498 20.7136 69.9741 20.5745 69.6124 20.2962C69.2785 19.9902 69.1115 19.6423 69.1115 19.2528C69.1115 18.9745 69.195 18.7102 69.362 18.4598L73.7027 12.9086C73.9253 12.6582 74.0366 12.366 74.0366 12.0321C74.0366 11.6982 73.9253 11.406 73.7027 11.1556L69.4454 5.68788C69.3063 5.43745 69.2368 5.17311 69.2368 4.89486C69.2368 4.47748 69.4037 4.12966 69.7376 3.8514C70.0715 3.54532 70.4193 3.39228 70.7811 3.39228C71.1706 3.39228 71.4906 3.55924 71.741 3.89314L75.414 9.02694C75.581 9.27737 75.7757 9.40258 75.9983 9.40258C76.2209 9.40258 76.4157 9.27737 76.5827 9.02694L80.2556 3.89314C80.5061 3.55924 80.8261 3.39228 81.2156 3.39228C81.6608 3.39228 82.0365 3.53141 82.3425 3.80967C82.6764 4.08792 82.8434 4.42183 82.8434 4.81138C82.8434 5.11746 82.746 5.40963 82.5512 5.68788L78.2939 11.1138C78.0435 11.3921 77.9183 11.6982 77.9183 12.0321C77.9183 12.2825 78.0296 12.5608 78.2522 12.8669L82.6347 18.4598C82.8017 18.7102 82.8851 18.9745 82.8851 19.2528C82.8851 19.6423 82.7043 19.9902 82.3425 20.2962C82.0086 20.5745 81.6469 20.7136 81.2573 20.7136C80.8678 20.7136 80.5478 20.5467 80.2974 20.2128L76.5409 14.9955C76.374 14.7451 76.1792 14.6199 75.9566 14.6199C75.734 14.6199 75.5392 14.7451 75.3723 14.9955L71.6993 20.2128C71.4489 20.5467 71.1289 20.7136 70.7393 20.7136Z" fill="black"/>
<path d="M85.4983 20.7136C85.1366 20.7136 84.8166 20.5884 84.5384 20.338C84.2601 20.0876 84.121 19.7537 84.121 19.3363C84.121 19.1971 84.1488 19.0163 84.2045 18.7937L89.4217 4.64443C89.6165 4.1714 89.9087 3.80967 90.2982 3.55924C90.6878 3.30881 91.1052 3.18359 91.5504 3.18359C91.9956 3.18359 92.413 3.30881 92.8025 3.55924C93.2199 3.80967 93.526 4.1714 93.7208 4.64443L99.2719 18.7937C99.3276 19.0163 99.3554 19.1971 99.3554 19.3363C99.3554 19.7537 99.2163 20.0876 98.938 20.338C98.6598 20.5884 98.3398 20.7136 97.9781 20.7136C97.7276 20.7136 97.4633 20.6441 97.185 20.5049C96.9346 20.3936 96.7398 20.1989 96.6007 19.9206L95.2233 16.2476C95.1955 16.0807 95.0842 15.9972 94.8894 15.9972H88.5035C88.3087 15.9972 88.1835 16.0807 88.1278 16.2476L86.8757 19.9206C86.7366 20.1989 86.5279 20.3936 86.2496 20.5049C85.9992 20.6441 85.7488 20.7136 85.4983 20.7136ZM89.7556 13.4929H93.5121C93.679 13.4929 93.8042 13.4373 93.8877 13.326C93.999 13.1868 94.0268 13.0199 93.9712 12.8251L91.9678 7.10698C91.8843 6.82873 91.7591 6.6896 91.5921 6.6896C91.3973 6.6896 91.2582 6.82873 91.1747 7.10698L89.2965 12.8669C89.2409 13.0338 89.2548 13.1868 89.3382 13.326C89.4496 13.4373 89.5887 13.4929 89.7556 13.4929Z" fill="black"/>
<path d="M112.23 20.7136C111.702 20.7136 111.173 20.6441 110.644 20.5049C110.143 20.3658 109.656 20.1571 109.183 19.8789C108.989 19.7397 108.836 19.5589 108.724 19.3363C108.613 19.0858 108.557 18.8632 108.557 18.6685C108.557 18.2789 108.697 17.945 108.975 17.6667C109.253 17.3607 109.573 17.2076 109.935 17.2076C110.185 17.2076 110.408 17.2633 110.603 17.3746C111.27 17.7363 111.883 17.9172 112.439 17.9172C113.608 17.9172 114.192 17.0546 114.192 15.3294V4.76964C114.192 4.35226 114.317 4.01836 114.568 3.76793C114.846 3.5175 115.208 3.39228 115.653 3.39228C116.098 3.39228 116.446 3.5175 116.696 3.76793C116.975 4.01836 117.114 4.35226 117.114 4.76964V15.4129C117.114 17.1937 116.627 18.5293 115.653 19.4197C114.707 20.2823 113.566 20.7136 112.23 20.7136Z" fill="black"/>
<path d="M128.759 20.7136C127.145 20.7136 125.67 20.338 124.334 19.5867C123.027 18.8076 121.983 17.7641 121.204 16.4563C120.425 15.1207 120.035 13.6181 120.035 11.9486C120.035 10.1956 120.425 8.66521 121.204 7.35741C121.983 6.04961 123.027 5.03399 124.334 4.31052C125.67 3.55924 127.145 3.18359 128.759 3.18359C130.373 3.18359 131.819 3.55924 133.099 4.31052C134.407 5.03399 135.437 6.04961 136.188 7.35741C136.967 8.66521 137.357 10.1956 137.357 11.9486C137.357 13.6181 136.967 15.1207 136.188 16.4563C135.437 17.7641 134.407 18.8076 133.099 19.5867C131.819 20.338 130.373 20.7136 128.759 20.7136ZM128.759 18.1676C129.872 18.1676 130.846 17.8893 131.68 17.3328C132.543 16.7485 133.211 15.9833 133.684 15.0372C134.157 14.0912 134.393 13.0616 134.393 11.9486C134.393 10.1678 133.865 8.69303 132.807 7.52436C131.75 6.35569 130.4 5.77136 128.759 5.77136C127.089 5.77136 125.726 6.35569 124.668 7.52436C123.611 8.69303 123.082 10.1678 123.082 11.9486C123.082 13.0616 123.319 14.0912 123.792 15.0372C124.265 15.9833 124.933 16.7485 125.795 17.3328C126.658 17.8893 127.646 18.1676 128.759 18.1676Z" fill="black"/>
<path d="M142.567 20.2962C141.983 20.2962 141.454 20.1015 140.981 19.7119C140.508 19.2945 140.272 18.7241 140.272 18.0006V5.77136C140.272 5.13138 140.481 4.6166 140.898 4.22705C141.343 3.80967 141.858 3.60098 142.442 3.60098H146.366C147.673 3.60098 148.828 3.96271 149.83 4.68617C150.832 5.38181 151.332 6.38352 151.332 7.69132C151.332 8.38695 151.179 9.04085 150.873 9.65301C150.595 10.2373 150.219 10.6826 149.746 10.9886C150.553 11.2669 151.193 11.7817 151.666 12.5329C152.139 13.2564 152.376 14.119 152.376 15.1207C152.376 16.7902 151.875 18.0702 150.873 18.9606C149.872 19.851 148.619 20.2962 147.117 20.2962H142.567ZM144.195 17.7502H147.117C148.007 17.7502 148.647 17.4859 149.037 16.9572C149.454 16.4007 149.663 15.8024 149.663 15.1625C149.663 14.5781 149.468 14.0216 149.079 13.4929C148.689 12.9642 148.091 12.6999 147.284 12.6999H144.028C143.416 12.6999 143.11 13.0199 143.11 13.6599V16.665C143.11 17.3885 143.472 17.7502 144.195 17.7502ZM144.028 10.3626H146.449C147.145 10.3626 147.673 10.126 148.035 9.65301C148.397 9.17998 148.578 8.67912 148.578 8.15044C148.578 7.64958 148.397 7.19046 148.035 6.77308C147.701 6.32787 147.173 6.10527 146.449 6.10527H144.237C143.486 6.10527 143.11 6.467 143.11 7.19046V9.40258C143.11 10.0426 143.416 10.3626 144.028 10.3626Z" fill="black"/>
<path d="M42.0947 30.6723H40.8204V32.8301H39.5746V26.829H42.1884C42.7909 26.829 43.2713 26.9837 43.6296 27.2931C43.9879 27.6025 44.167 28.0816 44.167 28.7303C44.167 29.4387 43.9879 29.9395 43.6296 30.2326C43.2713 30.5257 42.7597 30.6723 42.0947 30.6723ZM42.681 29.4224C42.8439 29.2785 42.9253 29.0505 42.9253 28.7384C42.9253 28.4263 42.8425 28.2037 42.6769 28.0707C42.5141 27.9377 42.2847 27.8712 41.9889 27.8712H40.8204V29.6382H41.9889C42.2847 29.6382 42.5154 29.5662 42.681 29.4224Z" fill="black"/>
<path d="M45.316 26.829H46.5699V31.7512H49.542V32.8301H45.316V26.829Z" fill="black"/>
<path d="M54.1353 31.5965H51.9245L51.5093 32.8301H50.1983L52.3398 26.829H53.7566L55.8819 32.8301H54.522L54.1353 31.5965ZM53.7851 30.5624L53.036 28.201L52.2624 30.5624H53.7851Z" fill="black"/>
<path d="M60.5973 26.829V27.8916H58.8018V32.8301H57.5397V27.8916H55.7361V26.829H60.5973Z" fill="black"/>
<path d="M65.7971 27.8916H62.7884V29.2718H65.4226V30.314H62.7884V32.8301H61.5426V26.8371H65.7971V27.8916Z" fill="black"/>
<path d="M69.5029 32.997C68.6452 32.997 67.9897 32.7636 67.5364 32.2967C66.9284 31.724 66.6244 30.8989 66.6244 29.8214C66.6244 28.7221 66.9284 27.897 67.5364 27.346C67.9897 26.8792 68.6452 26.6458 69.5029 26.6458C70.3606 26.6458 71.016 26.8792 71.4693 27.346C72.0746 27.897 72.3772 28.7221 72.3772 29.8214C72.3772 30.8989 72.0746 31.724 71.4693 32.2967C71.016 32.7636 70.3606 32.997 69.5029 32.997ZM70.6876 31.3848C70.978 31.0184 71.1233 30.4972 71.1233 29.8214C71.1233 29.1483 70.9767 28.6285 70.6835 28.2621C70.3931 27.8929 69.9996 27.7084 69.5029 27.7084C69.0062 27.7084 68.6099 27.8916 68.314 28.258C68.0182 28.6244 67.8703 29.1455 67.8703 29.8214C67.8703 30.4972 68.0182 31.0184 68.314 31.3848C68.6099 31.7512 69.0062 31.9344 69.5029 31.9344C69.9996 31.9344 70.3945 31.7512 70.6876 31.3848Z" fill="black"/>
<path d="M76.0951 30.4769H74.8005V32.8301H73.575V26.829H76.5186C76.9393 26.8371 77.2623 26.8887 77.4875 26.9837C77.7155 27.0787 77.9082 27.2185 78.0657 27.403C78.1959 27.555 78.2991 27.7233 78.3751 27.9079C78.4511 28.0924 78.4891 28.3028 78.4891 28.5389C78.4891 28.8239 78.4172 29.1048 78.2733 29.3817C78.1294 29.6558 77.892 29.8499 77.5608 29.9639C77.8377 30.0752 78.0331 30.2339 78.1471 30.4402C78.2638 30.6438 78.3222 30.9559 78.3222 31.3766V31.7797C78.3222 32.0538 78.333 32.2397 78.3547 32.3375C78.3873 32.4922 78.4633 32.6062 78.5827 32.6794V32.8301H77.2025C77.1645 32.6971 77.1374 32.5899 77.1211 32.5085C77.0885 32.3402 77.0709 32.1678 77.0682 31.9914L77.0601 31.4336C77.0546 31.0509 76.9841 30.7958 76.8483 30.6682C76.7153 30.5406 76.4643 30.4769 76.0951 30.4769ZM76.8565 29.3858C77.1062 29.2718 77.231 29.0465 77.231 28.7099C77.231 28.3462 77.1103 28.1019 76.8687 27.9771C76.733 27.9065 76.5294 27.8712 76.258 27.8712H74.8005V29.4835H76.2214C76.5036 29.4835 76.7153 29.4509 76.8565 29.3858Z" fill="black"/>
<path d="M80.9286 32.8301H79.7602V26.829H81.5841L82.6752 31.5476L83.7582 26.829H85.5618V32.8301H84.3933V28.771C84.3933 28.6543 84.3947 28.4914 84.3974 28.2824C84.4001 28.0707 84.4015 27.9079 84.4015 27.7939L83.2656 32.8301H82.0482L80.9205 27.7939C80.9205 27.9079 80.9218 28.0707 80.9245 28.2824C80.9273 28.4914 80.9286 28.6543 80.9286 28.771V32.8301Z" fill="black"/>
<path d="M93.7183 27.8916H90.7096V29.2718H93.3437V30.314H90.7096V32.8301H89.4637V26.8371H93.7183V27.8916Z" fill="black"/>
<path d="M97.424 32.997C96.5663 32.997 95.9108 32.7636 95.4575 32.2967C94.8496 31.724 94.5456 30.8989 94.5456 29.8214C94.5456 28.7221 94.8496 27.897 95.4575 27.346C95.9108 26.8792 96.5663 26.6458 97.424 26.6458C98.2817 26.6458 98.9372 26.8792 99.3904 27.346C99.9957 27.897 100.298 28.7221 100.298 29.8214C100.298 30.8989 99.9957 31.724 99.3904 32.2967C98.9372 32.7636 98.2817 32.997 97.424 32.997ZM98.6087 31.3848C98.8992 31.0184 99.0444 30.4972 99.0444 29.8214C99.0444 29.1483 98.8978 28.6285 98.6047 28.2621C98.3142 27.8929 97.9207 27.7084 97.424 27.7084C96.9273 27.7084 96.531 27.8916 96.2352 28.258C95.9393 28.6244 95.7914 29.1455 95.7914 29.8214C95.7914 30.4972 95.9393 31.0184 96.2352 31.3848C96.531 31.7512 96.9273 31.9344 97.424 31.9344C97.9207 31.9344 98.3156 31.7512 98.6087 31.3848Z" fill="black"/>
<path d="M104.016 30.4769H102.722V32.8301H101.496V26.829H104.44C104.86 26.8371 105.183 26.8887 105.409 26.9837C105.637 27.0787 105.829 27.2185 105.987 27.403C106.117 27.555 106.22 27.7233 106.296 27.9079C106.372 28.0924 106.41 28.3028 106.41 28.5389C106.41 28.8239 106.338 29.1048 106.194 29.3817C106.051 29.6558 105.813 29.8499 105.482 29.9639C105.759 30.0752 105.954 30.2339 106.068 30.4402C106.185 30.6438 106.243 30.9559 106.243 31.3766V31.7797C106.243 32.0538 106.254 32.2397 106.276 32.3375C106.308 32.4922 106.384 32.6062 106.504 32.6794V32.8301H105.124C105.086 32.6971 105.059 32.5899 105.042 32.5085C105.01 32.3402 104.992 32.1678 104.989 31.9914L104.981 31.4336C104.976 31.0509 104.905 30.7958 104.769 30.6682C104.636 30.5406 104.385 30.4769 104.016 30.4769ZM104.778 29.3858C105.027 29.2718 105.152 29.0465 105.152 28.7099C105.152 28.3462 105.031 28.1019 104.79 27.9771C104.654 27.9065 104.451 27.8712 104.179 27.8712H102.722V29.4835H104.142C104.425 29.4835 104.636 29.4509 104.778 29.3858Z" fill="black"/>
<path d="M114.465 32.3822C114.017 32.7921 113.444 32.997 112.747 32.997C111.884 32.997 111.205 32.7202 110.711 32.1665C110.217 31.61 109.97 30.8474 109.97 29.8784C109.97 28.8307 110.251 28.0232 110.813 27.4559C111.301 26.962 111.923 26.715 112.678 26.715C113.687 26.715 114.426 27.0461 114.892 27.7084C115.15 28.0802 115.289 28.4534 115.308 28.828H114.054C113.972 28.5403 113.868 28.3231 113.74 28.1766C113.512 27.916 113.174 27.7857 112.726 27.7857C112.27 27.7857 111.911 27.9703 111.648 28.3394C111.384 28.7058 111.253 29.2256 111.253 29.8987C111.253 30.5719 111.391 31.0767 111.668 31.4133C111.947 31.7471 112.302 31.914 112.731 31.914C113.17 31.914 113.505 31.7702 113.736 31.4825C113.864 31.3278 113.97 31.0957 114.054 30.7863H115.295C115.187 31.4404 114.91 31.9724 114.465 32.3822Z" fill="black"/>
<path d="M119.119 32.997C118.262 32.997 117.606 32.7636 117.153 32.2967C116.545 31.724 116.241 30.8989 116.241 29.8214C116.241 28.7221 116.545 27.897 117.153 27.346C117.606 26.8792 118.262 26.6458 119.119 26.6458C119.977 26.6458 120.632 26.8792 121.086 27.346C121.691 27.897 121.994 28.7221 121.994 29.8214C121.994 30.8989 121.691 31.724 121.086 32.2967C120.632 32.7636 119.977 32.997 119.119 32.997ZM120.304 31.3848C120.594 31.0184 120.74 30.4972 120.74 29.8214C120.74 29.1483 120.593 28.6285 120.3 28.2621C120.009 27.8929 119.616 27.7084 119.119 27.7084C118.623 27.7084 118.226 27.8916 117.93 28.258C117.635 28.6244 117.487 29.1455 117.487 29.8214C117.487 30.4972 117.635 31.0184 117.93 31.3848C118.226 31.7512 118.623 31.9344 119.119 31.9344C119.616 31.9344 120.011 31.7512 120.304 31.3848Z" fill="black"/>
<path d="M124.311 32.8301H123.143V26.829H124.966L126.058 31.5476L127.141 26.829H128.944V32.8301H127.776V28.771C127.776 28.6543 127.777 28.4914 127.78 28.2824C127.782 28.0707 127.784 27.9079 127.784 27.7939L126.648 32.8301H125.431L124.303 27.7939C124.303 27.9079 124.304 28.0707 124.307 28.2824C124.31 28.4914 124.311 28.6543 124.311 28.771V32.8301Z" fill="black"/>
<path d="M132.866 30.6723H131.591V32.8301H130.345V26.829H132.959C133.562 26.829 134.042 26.9837 134.401 27.2931C134.759 27.6025 134.938 28.0816 134.938 28.7303C134.938 29.4387 134.759 29.9395 134.401 30.2326C134.042 30.5257 133.531 30.6723 132.866 30.6723ZM133.452 29.4224C133.615 29.2785 133.696 29.0505 133.696 28.7384C133.696 28.4263 133.613 28.2037 133.448 28.0707C133.285 27.9377 133.056 27.8712 132.76 27.8712H131.591V29.6382H132.76C133.056 29.6382 133.286 29.5662 133.452 29.4224Z" fill="black"/>
<path d="M138.982 31.5965H136.771L136.356 32.8301H135.045L137.186 26.829H138.603L140.728 32.8301H139.368L138.982 31.5965ZM138.631 30.5624L137.882 28.201L137.109 30.5624H138.631Z" fill="black"/>
<path d="M146.555 32.8301H145.301L142.85 28.5674V32.8301H141.682V26.829H142.997L145.387 31.0184V26.829H146.555V32.8301Z" fill="black"/>
<path d="M152.781 26.829L150.774 30.5746V32.8301H149.52V30.5746L147.443 26.829H148.921L150.167 29.4427L151.36 26.829H152.781Z" fill="black"/>
<defs>
<linearGradient id="paint0_linear_288_441" x1="14.9301" y1="2.66945" x2="30.9906" y2="12.4736" gradientUnits="userSpaceOnUse">
<stop stop-color="#009471"/>
<stop offset="0.59" stop-color="#66FFCC"/>
<stop offset="1" stop-color="#66FFCC"/>
</linearGradient>
<linearGradient id="paint1_linear_288_441" x1="16.004" y1="32.0559" x2="-0.147792" y2="22.4039" gradientUnits="userSpaceOnUse">
<stop stop-color="#D42300"/>
<stop offset="0.59" stop-color="#FF6666"/>
<stop offset="1" stop-color="#FF6666"/>
</linearGradient>
<clipPath id="clip0_288_441">
<rect width="31.1906" height="34.9688" fill="white"/>
</clipPath>
</defs>
</svg>
