<svg width="358" height="235" viewBox="0 0 358 235" fill="none" xmlns="http://www.w3.org/2000/svg">
<path fill-rule="evenodd" clip-rule="evenodd" d="M344 0C344 2.76142 341.761 5 339 5C336.239 5 334 2.76142 334 0H324C324 2.76142 321.761 5 319 5C316.239 5 314 2.76142 314 0H304C304 2.76142 301.761 5 299 5C296.239 5 294 2.76142 294 0H284C284 2.76142 281.761 5 279 5C276.239 5 274 2.76142 274 0H264C264 2.76142 261.761 5 259 5C256.239 5 254 2.76142 254 0H244C244 2.76142 241.761 5 239 5C236.239 5 234 2.76142 234 0H224C224 2.76142 221.761 5 219 5C216.239 5 214 2.76142 214 0H204C204 2.76142 201.761 5 199 5C196.239 5 194 2.76142 194 0H184C184 2.76142 181.761 5 179 5C176.239 5 174 2.76142 174 0H164C164 2.76142 161.761 5 159 5C156.239 5 154 2.76142 154 0H144C144 2.76142 141.761 5 139 5C136.239 5 134 2.76142 134 0H124C124 2.76142 121.761 5 119 5C116.239 5 114 2.76142 114 0H104C104 2.76142 101.761 5 99 5C96.2386 5 94 2.76142 94 0H84C84 2.76142 81.7614 5 79 5C76.2386 5 74 2.76142 74 0H64C64 2.76142 61.7614 5 59 5C56.2386 5 54 2.76142 54 0H44C44 2.76142 41.7614 5 39 5C36.2386 5 34 2.76142 34 0H24C24 2.76142 21.7614 5 19 5C16.2386 5 14 2.76142 14 0H10C4.47715 0 0 4.47715 0 10V225C0 230.523 4.47715 235 9.99999 235H14C14 232.239 16.2386 230 19 230C21.7614 230 24 232.239 24 235H34C34 232.239 36.2386 230 39 230C41.7614 230 44 232.239 44 235H54C54 232.239 56.2386 230 59 230C61.7614 230 64 232.239 64 235H74C74 232.239 76.2386 230 79 230C81.7614 230 84 232.239 84 235H94C94 232.239 96.2386 230 99 230C101.761 230 104 232.239 104 235H114C114 232.239 116.239 230 119 230C121.761 230 124 232.239 124 235H134C134 232.239 136.239 230 139 230C141.761 230 144 232.239 144 235H154C154 232.239 156.239 230 159 230C161.761 230 164 232.239 164 235H174C174 232.239 176.239 230 179 230C181.761 230 184 232.239 184 235H194C194 232.239 196.239 230 199 230C201.761 230 204 232.239 204 235H214C214 232.239 216.239 230 219 230C221.761 230 224 232.239 224 235H234C234 232.239 236.239 230 239 230C241.761 230 244 232.239 244 235H254C254 232.239 256.239 230 259 230C261.761 230 264 232.239 264 235H274C274 232.239 276.239 230 279 230C281.761 230 284 232.239 284 235H294C294 232.239 296.239 230 299 230C301.761 230 304 232.239 304 235H314C314 232.239 316.239 230 319 230C321.761 230 324 232.239 324 235H334C334 232.239 336.239 230 339 230C341.761 230 344 232.239 344 235H348C353.523 235 358 230.523 358 225V10C358 4.47715 353.523 0 348 0H344Z" fill="#F2F2F2"/>
</svg>
